<svg width="257" height="65" viewBox="0 0 257 65" fill="none" xmlns="http://www.w3.org/2000/svg">
<path d="M33.0899 0.388916C15.6677 0.388916 1.54541 14.4913 1.54541 31.8889C1.54541 49.2865 15.6677 63.3889 33.0899 63.3889C50.512 63.3889 64.6343 49.2865 64.6343 31.8889C64.6343 14.4913 50.5083 0.388916 33.0899 0.388916ZM36.8123 15.876C32.8637 17.8605 36.8531 18.6714 36.6751 19.845C36.6232 20.1745 36.3118 20.7891 35.2848 21.0298C35.2885 21.052 35.2885 21.0742 35.2848 21.1001C36.5379 20.9891 36.5899 22.2664 36.3192 22.3923C34.102 23.4252 34.4209 25.2172 35.2699 26.3242C35.7297 26.924 36.2006 27.0129 36.5157 27.4423C37.2683 28.4642 37.387 29.549 36.1931 30.6375C35.8261 30.9707 35.3293 31.341 34.6841 31.7741C34.0687 32.1851 33.3123 32.6479 32.4039 33.1848C28.7705 35.3247 25.949 35.2988 28.0364 38.5088C29.3934 40.4044 27.9288 41.9446 26.646 42.4333C25.3632 42.9184 26.038 44.603 27.6174 44.5844C24.896 44.6141 25.4299 46.1172 25.8526 46.5615C26.6423 47.3871 26.9167 48.135 24.9368 49.4642C21.8632 51.5338 25.1111 53.0777 25.1111 53.0777C27.6841 54.8142 29.5899 57.18 30.0607 57.8612C30.1163 57.9242 30.4908 58.3722 30.5279 58.6054C16.8801 57.3466 6.19481 45.8803 6.19481 31.9259C6.19481 17.9716 17.3436 6.00552 31.414 5.17242C31.4214 5.30202 31.4363 5.42792 31.4363 5.55752C31.4363 5.66112 31.4363 5.76482 31.4622 5.86482C31.4548 5.86482 31.4474 5.86482 31.4363 5.86482C31.7959 7.73082 35.5962 10.9815 38.1433 13.1141C38.1433 13.1141 39.7636 14.4284 36.8123 15.8723V15.876Z" fill="#29ABE2"/>
<path d="M222.204 25.6929H222.571C223.879 25.6929 224.999 25.8706 225.937 26.2223C226.871 26.574 227.639 27.0702 228.24 27.707C228.84 28.3438 229.274 29.0954 229.541 29.9617C229.808 30.8281 229.941 31.7648 229.941 32.7681V43.146C229.941 43.9531 229.878 44.6528 229.752 45.2156C229.615 45.8302 229.359 46.3374 228.989 46.7299C228.621 47.1186 228.106 47.4111 227.465 47.5925C226.86 47.7629 226.093 47.8517 225.185 47.8517H215.363C212.764 47.8517 210.847 47.226 209.672 45.9857C208.5 44.7528 207.903 43.0497 207.903 40.9282C207.903 39.9138 208.04 38.9993 208.304 38.207C208.574 37.3887 209.023 36.6853 209.631 36.1151C210.232 35.5486 211.021 35.1081 211.982 34.8082C212.92 34.512 214.069 34.3639 215.408 34.3639H224.962V33.1828C224.962 32.4497 224.754 31.8574 224.332 31.3723C223.928 30.9058 223.197 30.6726 222.167 30.6726H209.179V25.6966H222.204V25.6929ZM196.273 25.6929H196.643C199.153 25.6929 200.97 26.2704 202.09 27.4219C203.209 28.5733 203.769 30.1913 203.769 32.2794C203.769 32.3424 203.769 32.4016 203.769 32.4646C203.769 32.5275 203.769 32.5941 203.769 32.6571C203.769 34.7341 203.176 36.3632 202.008 37.5035C200.844 38.6401 198.901 39.2177 196.228 39.2177H186.673V40.321C186.673 41.08 186.877 41.6761 187.3 42.15C187.704 42.6054 188.435 42.835 189.469 42.835H202.735V47.848H189.469C188.097 47.848 186.918 47.6629 185.962 47.2964C184.994 46.9261 184.178 46.3967 183.541 45.7191C182.903 45.0416 182.432 44.2419 182.15 43.3348C181.872 42.4536 181.731 41.4651 181.731 40.4025V33.1421C181.731 32.1054 181.872 31.1243 182.146 30.2283C182.428 29.3101 182.899 28.4993 183.537 27.8217C184.175 27.1442 184.99 26.6148 185.958 26.2445C186.914 25.878 188.097 25.6929 189.465 25.6929H196.261H196.273ZM139.939 41.4725C139.872 40.8542 139.839 40.1766 139.839 39.4436V30.0987H136.976V25.1597H139.839V20.1541H144.944V25.1597H150.75V30.0987H144.944V39.6805C144.944 40.7468 145.13 41.5021 145.482 41.8649C145.834 42.2315 146.461 42.4166 147.343 42.4166H150.672V47.1557H146.157C145.055 47.1557 144.11 47.0335 143.32 46.7928C142.527 46.5522 141.878 46.1486 141.366 45.5858C140.858 45.0231 140.48 44.2715 140.239 43.3311C140.098 42.7868 140.002 42.1685 139.943 41.4725H139.939ZM128.497 34.8822C128.853 34.7674 129.139 34.6045 129.354 34.3935C129.52 34.2306 129.658 34.0455 129.765 33.8381C129.873 33.5679 129.928 33.2569 129.928 32.9014C129.928 32.2054 129.736 31.6722 129.339 31.2687C128.946 30.8688 128.286 30.6689 127.374 30.6689H120.615C119.58 30.6689 118.854 30.9058 118.45 31.3686C118.027 31.8574 117.819 32.4497 117.819 33.1828V35.0118H127.251C127.741 35.0118 128.156 34.9674 128.501 34.8822H128.497ZM112.873 33.1421V32.7681C112.873 31.7648 113.007 30.8318 113.274 29.9617C113.541 29.0954 113.974 28.3438 114.575 27.707C115.176 27.0702 115.936 26.574 116.859 26.2223C117.782 25.8706 118.909 25.6929 120.244 25.6929H127.411C130.006 25.6929 131.927 26.3112 133.121 27.533C134.311 28.7547 134.911 30.4764 134.911 32.6571C134.911 34.8378 134.318 36.3632 133.15 37.5035C131.986 38.6401 130.043 39.2177 127.37 39.2177H117.816V40.321C117.816 41.08 118.019 41.6761 118.442 42.15C118.846 42.6054 119.577 42.835 120.611 42.835H133.877V47.848H120.611C119.239 47.848 118.06 47.6629 117.104 47.2964C116.132 46.9261 115.32 46.3967 114.679 45.7191C114.041 45.0416 113.57 44.2419 113.288 43.3348C113.01 42.4499 112.87 41.4614 112.87 40.4025V33.1421H112.873ZM89.2961 25.6929H89.6671C90.9761 25.6929 92.0961 25.8706 93.0301 26.2223C93.9641 26.574 94.7321 27.0702 95.3321 27.707C95.9331 28.3438 96.3671 29.0954 96.6341 29.9617C96.9011 30.8281 97.0341 31.7648 97.0341 32.7681V43.146C97.0341 43.9531 96.9711 44.6528 96.8451 45.2156C96.7081 45.8302 96.4521 46.3374 96.0811 46.7299C95.7141 47.1186 95.1991 47.4111 94.5581 47.5925C93.9531 47.7629 93.1861 47.8517 92.2771 47.8517H82.4601C79.8607 47.8517 77.9438 47.226 76.7685 45.9857C75.5969 44.7528 75 43.0497 75 40.9282C75 39.9138 75.1335 38.9993 75.4004 38.207C75.6748 37.3924 76.1197 36.6853 76.7277 36.1151C77.3284 35.5486 78.1181 35.1081 79.0784 34.8082C80.0164 34.512 81.1661 34.3639 82.5041 34.3639H92.0591V33.1828C92.0591 32.4497 91.8511 31.8574 91.4281 31.3723C91.0241 30.9058 90.2981 30.6726 89.2631 30.6726H76.2717V25.6966H89.2961V25.6929ZM82.5781 38.6142C81.5851 38.6142 80.8951 38.7994 80.5281 39.1585C80.161 39.5213 79.9793 40.0211 79.9793 40.6839C79.9793 41.3466 80.161 41.8686 80.5351 42.2574C80.9021 42.6387 81.5621 42.835 82.4971 42.835H91.3211C91.9291 42.835 92.0481 42.5943 92.0481 42.1759V38.6142H82.5781ZM102.544 47.8517V16H108.053V47.848H102.544V47.8517ZM171.728 47.8517V35.2599C171.728 33.7123 171.272 32.546 170.338 31.6982C169.4 30.8503 167.85 30.4171 165.737 30.4171H158.651V47.848H153.505V16H158.651V25.3708H165.737C169.44 25.3708 172.258 26.2519 174.112 27.9809C175.973 29.7211 176.919 32.1721 176.919 35.2599V47.848H171.732L171.728 47.8517ZM196.113 35.0118C197.133 35.0118 197.845 34.823 198.223 34.449C198.605 34.0714 198.79 33.5642 198.79 32.9014C198.79 32.2387 198.597 31.6722 198.2 31.2687C197.807 30.8688 197.147 30.6689 196.235 30.6689H189.476C188.442 30.6689 187.715 30.9058 187.311 31.3686C186.888 31.8574 186.681 32.4497 186.681 33.1828V35.0118H196.117H196.113ZM215.485 38.6142C214.492 38.6142 213.802 38.7994 213.435 39.1585C213.064 39.5213 212.886 40.0211 212.886 40.6839C212.886 41.3466 213.068 41.8686 213.442 42.2574C213.806 42.6387 214.466 42.835 215.404 42.835H224.228C224.836 42.835 224.958 42.5943 224.958 42.1759V38.6142H215.485ZM234.075 47.811V45.0416H236.83V47.811H234.075ZM247.853 45.6488C248.253 45.6488 248.454 45.46 248.454 45.0823V43.0053H243.307C242.729 43.0053 242.321 43.12 242.088 43.3533C241.854 43.5828 241.735 43.9013 241.735 44.3085C241.735 44.7158 241.854 45.0416 242.088 45.2822C242.321 45.5266 242.714 45.6488 243.267 45.6488H247.857H247.853ZM246.8 36.7334C247.475 36.7334 248.053 36.8223 248.535 37.0037C249.017 37.1851 249.414 37.4406 249.725 37.7701C250.037 38.0996 250.259 38.4846 250.396 38.9326C250.534 39.3806 250.604 39.8619 250.604 40.3803V45.5821C250.604 45.9894 250.574 46.33 250.511 46.6114C250.448 46.8928 250.333 47.1186 250.17 47.2964C250.003 47.4704 249.773 47.6 249.477 47.6814C249.18 47.7666 248.806 47.8073 248.35 47.8073H243.244C241.947 47.8073 241.016 47.5074 240.441 46.9039C239.87 46.3041 239.581 45.4785 239.581 44.427C239.581 43.9235 239.648 43.4755 239.778 43.083C239.907 42.6906 240.119 42.3574 240.408 42.0871C240.697 41.8168 241.075 41.6058 241.546 41.4577C242.013 41.3096 242.588 41.2392 243.263 41.2392H248.45V40.3988C248.45 39.9656 248.324 39.6028 248.068 39.3066C247.812 39.0104 247.382 38.866 246.774 38.866H240.241V36.726H246.796L246.8 36.7334ZM253.359 47.8295V36.8445H255.498V47.8295H253.359ZM253.359 34.823V32.1276H255.52V34.823H253.359Z" fill="white"/>
</svg>
