<svg width="163" height="163" viewBox="0 0 163 163" fill="none" xmlns="http://www.w3.org/2000/svg">
<rect width="163" height="163" rx="16" fill="#302C3F"/>
<path d="M78.476 128.695L96.2231 123.94C99.1522 123.155 98.3014 118.601 93.7641 118.898C90.6546 119.101 76.6369 121.832 72.9378 120.432C70.1527 119.378 63.6095 114.819 61.0931 112.755C59.4616 110.802 61.8738 110.155 62.9193 110.611C63.9647 111.066 73.1965 114.919 75.9812 115.939C79.462 117.213 80.8627 112.791 78.7603 111.148C76.8542 109.658 60.9186 99.0093 52.8088 100.447C52.8088 100.447 44.0658 102.21 34.0653 101.01C32.6049 100.835 32.6855 115.939 34.0653 115.939C41.5368 115.939 47.0588 118.78 48.6179 119.407C62.8975 125.144 68.333 130.126 78.476 128.695Z" stroke="#787582" stroke-width="3.64343" stroke-linecap="round" stroke-linejoin="round"/>
<path d="M86.524 44.2478L68.7769 49.0031C65.8478 49.788 66.6986 54.3416 71.2359 54.0453C74.3454 53.8423 88.3631 51.1112 92.0622 52.5108C94.8473 53.5646 101.39 58.1243 103.907 60.1875C105.538 62.1411 103.126 62.7875 102.081 62.332C101.035 61.8765 91.8035 58.0238 89.0188 57.0044C85.538 55.7303 84.1373 60.1515 86.2397 61.795C88.1458 63.2852 104.081 73.9337 112.191 72.4963C112.191 72.4963 120.934 70.7332 130.935 71.9325C132.395 72.1076 132.315 57.0044 130.935 57.0044C123.463 57.0044 117.941 54.1627 116.382 53.5363C102.102 47.7994 96.667 42.8173 86.524 44.2478Z" stroke="white" stroke-width="3.64343" stroke-linecap="round" stroke-linejoin="round"/>
<path d="M93.1648 79.8419L82.7513 73.3799L71.5367 79.8419M93.1648 79.8419V92.766L82.7513 99.228M93.1648 79.8419L82.7513 86.304M82.7513 99.228L71.5367 92.766V79.8419M82.7513 99.228V86.304M71.5367 79.8419L82.7513 86.304" stroke="#787582" stroke-width="3.64343" stroke-linejoin="round"/>
</svg>
