<svg width="163" height="163" viewBox="0 0 163 163" fill="none" xmlns="http://www.w3.org/2000/svg">
<rect width="163" height="163" rx="16" fill="#302C3F"/>
<path opacity="0.4" fill-rule="evenodd" clip-rule="evenodd" d="M41.5073 60.779C41.5073 55.6094 44.069 51.0083 47.9455 47.6584C51.8326 44.2994 56.9269 42.3061 61.7318 42.3061C71.4952 42.3061 82.8611 49.4223 82.9067 63.5678C82.9075 63.8276 82.9555 64.0942 83.0561 64.3492L86.7028 73.5921L83.1273 75.3807C82.4099 75.7396 81.9562 76.4772 81.9562 77.2846V88.8359H72.2281C72.2149 88.8355 72.2017 88.8354 72.1884 88.8354C72.1751 88.8354 72.1619 88.8355 72.1487 88.8359H67.1868C66.2813 88.8359 65.5472 89.5759 65.5472 90.4889C65.5472 91.4018 66.2813 92.1419 67.1868 92.1419H70.5488V98.1555C70.5488 99.0684 71.2828 99.8085 72.1884 99.8085C73.0939 99.8085 73.828 99.0684 73.828 98.1555V92.1419H83.1274C84.2916 92.1419 85.2354 91.1904 85.2354 90.0166V78.0168L89.1268 76.0702C90.1097 75.5785 90.5542 74.4088 90.1486 73.3808L86.1844 63.3332C86.0119 47.0824 72.7894 39 61.7318 39C56.0799 39 50.2422 41.3194 45.8114 45.1482C41.3701 48.9862 38.2281 54.4481 38.2281 60.779C38.2281 66.8925 40.2494 72.1875 42.1866 76.3378C42.6717 77.377 43.1553 78.3521 43.6011 79.2471L43.694 79.4336L43.6941 79.4338C44.1065 80.2617 44.4793 81.01 44.8008 81.6988C45.5325 83.2664 45.833 84.203 45.833 84.7386V84.7566V84.7747V84.7929V84.8112V84.8296V84.8481V84.8667V84.8853V84.9041V84.9229V84.9418V84.9609V84.98V84.9992V85.0185V85.0378V85.0573V85.0769V85.0965V85.1162V85.136V85.1559V85.1759V85.196V85.2161V85.2364V85.2567V85.2771V85.2976V85.3182V85.3388V85.3596V85.3804V85.4013V85.4223V85.4434V85.4645V85.4857V85.507V85.5284V85.5499V85.5714V85.593V85.6147V85.6365V85.6584V85.6803V85.7023V85.7244V85.7466V85.7688V85.7911V85.8135V85.836V85.8585V85.8811V85.9038V85.9266V85.9494V85.9723V85.9953V86.0183V86.0414V86.0646V86.0879V86.1112V86.1346V86.1581V86.1816V86.2052V86.2289V86.2526V86.2764V86.3003V86.3242V86.3483V86.3723V86.3965V86.4207V86.445V86.4693V86.4937V86.5182V86.5427V86.5673V86.5919V86.6167V86.6414V86.6663V86.6912V86.7162V86.7412V86.7663V86.7914V86.8166V86.8419V86.8672V86.8926V86.918V86.9435V86.9691V86.9947V87.0204V87.0461V87.0719V87.0977V87.1236V87.1496V87.1756V87.2017V87.2278V87.2539V87.2802V87.3064V87.3328V87.3591V87.3856V87.4121V87.4386V87.4652V87.4918V87.5185V87.5452V87.572V87.5988V87.6257V87.6527V87.6796V87.7067V87.7337V87.7608V87.788V87.8152V87.8425V87.8698V87.8971V87.9245V87.952V87.9794V88.007V88.0345V88.0621V88.0898V88.1175V88.1452V88.173V88.2008V88.2287V88.2566V88.2845V88.3125V88.3405V88.3686V88.3967V88.4248V88.453V88.4812V88.5094V88.5377V88.566V88.5944V88.6228V88.6512V88.6797V88.7082V88.7367V88.7653V88.7939V88.8225V88.8512V88.8799V88.9086V88.9373V88.9661V88.995V89.0238V89.0527V89.0816V89.1105V89.1395V89.1685V89.1976V89.2266V89.2557V89.2848V89.3139V89.3431V89.3723V89.4015V89.4308V89.46V89.4893V89.5186V89.548V89.5774V89.6067V89.6362V89.6656V89.695V89.7245V89.754V89.7836V89.8131V89.8427V89.8722V89.9018V89.9315V89.9611V89.9908V90.0205V90.0501V90.0799V90.1096V90.1393V90.1691V90.1989V90.2287V90.2585V90.2883V90.3182V90.348V90.3779V90.4078V90.4377V90.4676V90.4975V90.5275V90.5574V90.5874V90.6173V90.6473V90.6773V90.7073V90.7373V90.7674V90.7974V90.8274V90.8575V90.8875V90.9176V90.9477V90.9777V91.0078V91.0379V91.068V91.0981V91.1282V91.1583V91.1884V91.2186V91.2487V91.2788V91.3089V91.3391V91.3692V91.3993V91.4295V91.4596V91.4898V91.5199V91.55V91.5802V91.6103V91.6405V91.6706V91.7007V91.7309V91.761V91.7911V91.8212V91.8514V91.8815V91.9116V91.9417V91.9718V92.0019V92.032V92.0621V92.0921V92.1222V92.1523V92.1823V92.2124V92.2424V92.2725V92.3025V92.3325V92.3625V92.3925V92.4225V92.4525V92.4824V92.5124V92.5423V92.5722V92.6021V92.632V92.6619V92.6918V92.7217V92.7515V92.7813V92.8112V92.841V92.8707V92.9005V92.9303V92.96V92.9897V93.0194V93.0491V93.0788V93.1084V93.138V93.1676V93.1972V93.2268V93.2563V93.2859V93.3154V93.3448V93.3743V93.4037V93.4332V93.4626V93.4919V93.5213V93.5506V93.5799V93.6092V93.6384V93.6676V93.6968V93.726V93.7551V93.7842V93.8133V93.8424V93.8714V93.9004V93.9294V93.9584V93.9873V94.0162V94.045V94.0738V94.1026V94.1314V94.1601V94.1888V94.2175V94.2461V94.2747V94.3033V94.3318V94.3603V94.3888V94.4172V94.4456V94.474V94.5023V94.5306V94.5589V94.5871V94.6152V94.6434V94.6715V94.6996V94.7276V94.7556V94.7835V94.8114V94.8393V94.8671V94.8949V94.9226V94.9503V94.978V95.0056V95.0332V95.0607V95.0882V95.1156V95.143V95.1704V95.1977V95.2249V95.2522V95.2793V95.3065V95.3335V95.3606V95.3876V95.4145V95.4414V95.4682V95.495V95.5218V95.5484V95.5751V95.6017V95.6282V95.6547V95.6811V95.7075V95.7339V95.7601V95.7864V95.8125V95.8387V95.8647V95.8907V95.9167V95.9426V95.9685V95.9942V96.02V96.0457V96.0713V96.0969V96.1224V96.1478V96.1732V96.1985V96.2238V96.249V96.2742V96.2993V96.3243V96.3493V96.3742V96.399V96.4238V96.4486V96.4732V96.4978V96.5224V96.5468V96.5712V96.5956V96.6199V96.6441V96.6682V96.6923V96.7163V96.7403V96.7642V96.788V96.8118V96.8354V96.859V96.8826V96.9061V96.9295V96.9528V96.9761V96.9993V97.0224V97.0455V97.0684V97.0913V97.1142V97.1369V97.1596V97.1823V97.2048V97.2273V97.2497V97.272V97.2942V97.3164V97.3385V97.3605V97.3825V97.4043V97.4261V97.4478V97.4695V97.491V97.5125V97.5339V97.5552V97.5764V97.5976V97.6187V97.6397V97.6606V97.6814V97.7022V97.7228V97.7434V97.7639V97.7843V97.8047V97.8249V97.8451V97.8652V97.8852V97.9051V97.9249V97.9446V97.9643V97.9838V98.0033V98.0227V98.042V98.0612V98.0803V98.0994V98.1183V98.1372V98.1559C45.833 99.0689 46.5671 99.809 47.4726 99.809C48.3781 99.809 49.1122 99.0689 49.1122 98.1559V98.1372V98.1183V98.0994V98.0803V98.0612V98.042V98.0227V98.0033V97.9838V97.9643V97.9446V97.9249V97.9051V97.8852V97.8652V97.8451V97.8249V97.8047V97.7843V97.7639V97.7434V97.7228V97.7022V97.6814V97.6606V97.6397V97.6187V97.5976V97.5764V97.5552V97.5339V97.5125V97.491V97.4695V97.4478V97.4261V97.4043V97.3825V97.3605V97.3385V97.3164V97.2942V97.272V97.2497V97.2273V97.2048V97.1823V97.1596V97.1369V97.1142V97.0913V97.0684V97.0455V97.0224V96.9993V96.9761V96.9528V96.9295V96.9061V96.8826V96.859V96.8354V96.8118V96.788V96.7642V96.7403V96.7163V96.6923V96.6682V96.6441V96.6199V96.5956V96.5712V96.5468V96.5224V96.4978V96.4732V96.4486V96.4238V96.399V96.3742V96.3493V96.3243V96.2993V96.2742V96.249V96.2238V96.1985V96.1732V96.1478V96.1224V96.0969V96.0713V96.0457V96.02V95.9942V95.9685V95.9426V95.9167V95.8907V95.8647V95.8387V95.8125V95.7864V95.7601V95.7339V95.7075V95.6811V95.6547V95.6282V95.6017V95.5751V95.5484V95.5218V95.495V95.4682V95.4414V95.4145V95.3876V95.3606V95.3335V95.3065V95.2793V95.2522V95.2249V95.1977V95.1704V95.143V95.1156V95.0882V95.0607V95.0332V95.0056V94.978V94.9503V94.9226V94.8949V94.8671V94.8393V94.8114V94.7835V94.7556V94.7276V94.6996V94.6715V94.6434V94.6152V94.5871V94.5589V94.5306V94.5023V94.474V94.4456V94.4172V94.3888V94.3603V94.3318V94.3033V94.2747V94.2461V94.2175V94.1888V94.1601V94.1314V94.1026V94.0738V94.045V94.0162V93.9873V93.9584V93.9294V93.9004V93.8714V93.8424V93.8133V93.7842V93.7551V93.726V93.6968V93.6676V93.6384V93.6092V93.5799V93.5506V93.5213V93.4919V93.4626V93.4332V93.4037V93.3743V93.3448V93.3154V93.2859V93.2563V93.2268V93.1972V93.1676V93.138V93.1084V93.0788V93.0491V93.0194V92.9897V92.96V92.9303V92.9005V92.8707V92.841V92.8112V92.7813V92.7515V92.7217V92.6918V92.6619V92.632V92.6021V92.5722V92.5423V92.5124V92.4824V92.4525V92.4225V92.3925V92.3625V92.3325V92.3025V92.2725V92.2424V92.2124V92.1823V92.1523V92.1222V92.0921V92.0621V92.032V92.0019V91.9718V91.9417V91.9116V91.8815V91.8514V91.8212V91.7911V91.761V91.7309V91.7007V91.6706V91.6405V91.6103V91.5802V91.55V91.5199V91.4898V91.4596V91.4295V91.3993V91.3692V91.3391V91.3089V91.2788V91.2487V91.2186V91.1884V91.1583V91.1282V91.0981V91.068V91.0379V91.0078V90.9777V90.9477V90.9176V90.8875V90.8575V90.8274V90.7974V90.7674V90.7373V90.7073V90.6773V90.6473V90.6173V90.5874V90.5574V90.5275V90.4975V90.4676V90.4377V90.4078V90.3779V90.348V90.3182V90.2883V90.2585V90.2287V90.1989V90.1691V90.1393V90.1096V90.0799V90.0501V90.0205V89.9908V89.9611V89.9315V89.9018V89.8722V89.8427V89.8131V89.7836V89.754V89.7245V89.695V89.6656V89.6362V89.6067V89.5774V89.548V89.5186V89.4893V89.46V89.4308V89.4015V89.3723V89.3431V89.3139V89.2848V89.2557V89.2266V89.1976V89.1685V89.1395V89.1105V89.0816V89.0527V89.0238V88.995V88.9661V88.9373V88.9086V88.8799V88.8512V88.8225V88.7939V88.7653V88.7367V88.7082V88.6797V88.6512V88.6228V88.5944V88.566V88.5377V88.5094V88.4812V88.453V88.4248V88.3967V88.3686V88.3405V88.3125V88.2845V88.2566V88.2287V88.2008V88.173V88.1452V88.1175V88.0898V88.0621V88.0345V88.007V87.9794V87.952V87.9245V87.8971V87.8698V87.8425V87.8152V87.788V87.7608V87.7337V87.7067V87.6796V87.6527V87.6257V87.5988V87.572V87.5452V87.5185V87.4918V87.4652V87.4386V87.4121V87.3856V87.3591V87.3328V87.3064V87.2802V87.2539V87.2278V87.2017V87.1756V87.1496V87.1236V87.0977V87.0719V87.0461V87.0204V86.9947V86.9691V86.9435V86.918V86.8926V86.8672V86.8419V86.8166V86.7914V86.7663V86.7412V86.7162V86.6912V86.6663V86.6414V86.6167V86.5919V86.5673V86.5427V86.5182V86.4937V86.4693V86.445V86.4207V86.3965V86.3723V86.3483V86.3242V86.3003V86.2764V86.2526V86.2289V86.2052V86.1816V86.1581V86.1346V86.1112V86.0879V86.0646V86.0414V86.0183V85.9953V85.9723V85.9494V85.9266V85.9038V85.8811V85.8585V85.836V85.8135V85.7911V85.7688V85.7466V85.7244V85.7023V85.6803V85.6584V85.6365V85.6147V85.593V85.5714V85.5499V85.5284V85.507V85.4857V85.4645V85.4434V85.4223V85.4013V85.3804V85.3596V85.3388V85.3182V85.2976V85.2771V85.2567V85.2364V85.2161V85.196V85.1759V85.1559V85.136V85.1162V85.0965V85.0769V85.0573V85.0378V85.0185V84.9992V84.98V84.9609V84.9418V84.9229V84.9041V84.8853V84.8667V84.8481V84.8296V84.8112V84.7929V84.7747V84.7566V84.7386C49.1122 83.3575 48.4621 81.7782 47.7679 80.2911C47.4276 79.5621 47.0363 78.7766 46.6296 77.9602L46.6295 77.9602L46.5317 77.7636C46.0862 76.8692 45.6192 75.9275 45.1537 74.9301C43.2885 70.9341 41.5073 66.1662 41.5073 60.779Z" fill="white"/>
<path fill-rule="evenodd" clip-rule="evenodd" d="M89.7144 112.724C89.7146 112.724 89.7144 112.721 89.7131 112.716C89.7135 112.721 89.7141 112.724 89.7144 112.724ZM89.7105 112.708C89.6993 112.674 89.6581 112.587 89.5211 112.442C89.2877 112.196 88.8643 111.88 88.1786 111.529C86.8098 110.829 84.7179 110.148 81.9898 109.557C76.5607 108.382 68.9776 107.64 60.5438 107.64C52.1101 107.64 44.527 108.382 39.0979 109.557C36.3698 110.148 34.2779 110.829 32.9091 111.529C32.2234 111.88 31.8 112.196 31.5666 112.442C31.4296 112.587 31.3884 112.674 31.3771 112.708C31.3884 112.741 31.4296 112.828 31.5666 112.973C31.8 113.22 32.2234 113.536 32.9091 113.887C34.2779 114.587 36.3698 115.268 39.0979 115.859C44.527 117.034 52.1101 117.775 60.5438 117.775C68.9776 117.775 76.5607 117.034 81.9898 115.859C84.7179 115.268 86.8098 114.587 88.1786 113.887C88.8643 113.536 89.2877 113.22 89.5211 112.973C89.6581 112.828 89.6993 112.741 89.7105 112.708ZM31.3733 112.724C31.3736 112.724 31.3742 112.721 31.3746 112.716C31.3733 112.721 31.3731 112.724 31.3733 112.724ZM31.3746 112.699C31.3742 112.695 31.3735 112.692 31.3733 112.692C31.3731 112.692 31.3733 112.694 31.3746 112.699ZM89.7131 112.699C89.7144 112.694 89.7146 112.692 89.7144 112.692C89.7141 112.692 89.7135 112.695 89.7131 112.699ZM82.7355 106.412C76.9967 105.17 69.1516 104.416 60.5438 104.416C51.9361 104.416 44.091 105.17 38.3522 106.412C35.4964 107.03 33.0695 107.789 31.3155 108.687C30.4398 109.135 29.6508 109.658 29.062 110.281C28.4644 110.913 28 111.732 28 112.708C28 113.684 28.4644 114.503 29.062 115.135C29.6508 115.758 30.4398 116.281 31.3155 116.729C33.0695 117.627 35.4964 118.385 38.3522 119.004C44.091 120.246 51.9361 121 60.5438 121C69.1516 121 76.9967 120.246 82.7355 119.004C85.5913 118.385 88.0182 117.627 89.7722 116.729C90.6479 116.281 91.4369 115.758 92.0256 115.135C92.6233 114.503 93.0877 113.684 93.0877 112.708C93.0877 111.732 92.6233 110.913 92.0256 110.281C91.4369 109.658 90.6479 109.135 89.7722 108.687C88.0182 107.789 85.5913 107.03 82.7355 106.412Z" fill="white" fill-opacity="0.4"/>
<path fill-rule="evenodd" clip-rule="evenodd" d="M62.3519 52.1053C61.8478 51.821 61.2348 51.831 60.7398 52.1317L51.1144 57.9765C50.6194 58.277 50.3158 58.8234 50.3158 59.4137V71.1033C50.3158 71.6935 50.6194 72.2399 51.1144 72.5405L60.7398 78.3853C61.2348 78.6859 61.8478 78.6959 62.3519 78.4117L72.7177 72.5669C73.2381 72.2735 73.5614 71.7126 73.5614 71.1033V59.4137C73.5614 58.8044 73.2381 58.2435 72.7177 57.9501L62.3519 52.1053ZM70.307 62.2366L63.1956 66.2464V74.1252L70.307 70.1154V62.2366ZM59.9412 74.0196L53.5702 70.151V62.3421L59.9412 66.2108V74.0196ZM61.5982 63.3362L55.1384 59.4137L61.5982 55.4911L68.555 59.4137L61.5982 63.3362Z" fill="white"/>
<path opacity="0.4" fill-rule="evenodd" clip-rule="evenodd" d="M101.055 80.1179L101.055 102.796C101.055 103.691 100.313 104.416 99.3962 104.416C98.4798 104.416 97.7369 103.691 97.7369 102.796L97.7369 56.5142C97.7369 56.0143 97.9688 55.5673 98.3334 55.2702C98.6375 54.9 99.1047 54.663 99.6286 54.663H132.341C132.963 54.663 133.533 55.0026 133.817 55.5427C134.101 56.0829 134.052 56.7328 133.689 57.2264L126.228 67.3904L133.689 77.5544C134.052 78.048 134.101 78.698 133.817 79.2381C133.533 79.7783 132.963 80.1179 132.341 80.1179H101.055ZM101.288 76.8782V57.9027H129.11L122.838 66.4469C122.424 67.011 122.424 67.7699 122.838 68.334L129.11 76.8782H101.288Z" fill="white"/>
</svg>
