<svg width="163" height="163" viewBox="0 0 163 163" fill="none" xmlns="http://www.w3.org/2000/svg">
<rect width="163" height="163" rx="16" fill="#302C3F"/>
<path fill-rule="evenodd" clip-rule="evenodd" d="M139.461 42.0866C140.192 42.3363 140.643 43.0704 140.534 43.8351L140.234 45.9452C140.116 46.7715 140.2 47.59 140.462 48.3201C140.725 49.0491 141.154 49.6601 141.693 50.1079L141.693 50.108L142.419 50.7108C142.933 51.1373 143.129 51.8363 142.913 52.4678C142.698 53.0992 142.114 53.5318 141.447 53.5553L140.503 53.5884L140.503 53.5884C139.802 53.6131 139.089 53.8339 138.435 54.2503C137.78 54.6672 137.213 55.2635 136.8 55.989L136.8 55.9891L135.745 57.8418C135.363 58.5133 134.557 58.8185 133.825 58.5688C133.094 58.3191 132.643 57.585 132.752 56.8202L133.052 54.7102L133.052 54.7101C133.17 53.8838 133.086 53.0653 132.824 52.3353C132.561 51.6062 132.132 50.9952 131.593 50.5475L131.593 50.5473L130.867 49.9445C130.353 49.518 130.156 48.819 130.372 48.1876C130.588 47.5562 131.172 47.1235 131.839 47.1001L132.783 47.067L132.783 47.067C133.483 47.0422 134.197 46.8214 134.851 46.4051C135.506 45.9881 136.073 45.3918 136.486 44.6663L136.486 44.6662L137.541 42.8136C137.923 42.1421 138.729 41.8368 139.461 42.0866ZM135.169 49.8245C135.444 50.27 135.674 50.7468 135.854 51.2471C135.94 51.488 136.015 51.733 136.078 51.981C136.279 51.8231 136.488 51.675 136.704 51.5374C137.153 51.2517 137.627 51.0149 138.117 50.8309C137.842 50.3854 137.612 49.9085 137.432 49.4083C137.346 49.1673 137.271 48.9224 137.208 48.6744C137.007 48.8322 136.798 48.9803 136.582 49.1179C136.133 49.4036 135.659 49.6405 135.169 49.8245ZM27.5827 97.6678C28.3546 97.6678 29.0178 98.2151 29.1636 98.9724L29.6381 101.436L29.6381 101.436C29.8316 102.442 30.2593 103.363 30.8671 104.114C31.4743 104.864 32.2373 105.415 33.0729 105.73L33.0731 105.73L34.1232 106.126C34.7503 106.362 35.1655 106.961 35.1655 107.631C35.1655 108.3 34.7503 108.9 34.1232 109.136L33.0731 109.531L33.0729 109.531C32.2373 109.846 31.4743 110.397 30.8671 111.147C30.2593 111.898 29.8316 112.82 29.6381 113.825L29.6381 113.825L29.1636 116.289C29.0178 117.046 28.3546 117.594 27.5827 117.594C26.8109 117.594 26.1476 117.046 26.0018 116.289L25.5274 113.825L25.5274 113.825C25.3338 112.82 24.9062 111.898 24.2983 111.147C23.6912 110.397 22.9282 109.846 22.0926 109.531L22.0924 109.531L21.0422 109.136C20.4151 108.9 20 108.3 20 107.631C20 106.961 20.4151 106.362 21.0422 106.126L22.0924 105.73L22.0926 105.73C22.9282 105.415 23.6912 104.864 24.2983 104.114C24.9062 103.363 25.3338 102.442 25.5274 101.436L25.5274 101.436L26.0018 98.9724C26.1476 98.2151 26.8109 97.6678 27.5827 97.6678ZM25.2512 107.631C25.8237 108.058 26.3447 108.56 26.8019 109.125C27.0908 109.481 27.3516 109.86 27.5827 110.257C27.8139 109.86 28.0746 109.481 28.3635 109.125C28.8208 108.56 29.3418 108.058 29.9142 107.631C29.3418 107.204 28.8208 106.702 28.3635 106.137C28.0746 105.78 27.8139 105.401 27.5827 105.005C27.3516 105.401 27.0908 105.78 26.8019 106.137C26.3447 106.702 25.8237 107.204 25.2512 107.631ZM86.3835 106.422L84.5467 106.814C84.7233 106.88 84.9147 106.917 85.1146 106.917H89.5206V114.447C89.5206 115.335 90.2414 116.055 91.1305 116.055C92.0197 116.055 92.7404 115.335 92.7404 114.447V106.917H104.391C105.534 106.917 106.461 105.991 106.461 104.849V90.218L111.428 87.7557C112.393 87.2772 112.829 86.1391 112.431 85.1388L107.603 73.0114C107.434 53.8417 91.7207 44.2985 78.5535 44.2985C75.3405 44.2985 72.0736 44.9252 68.9625 46.0746C70.2538 46.6918 71.5308 47.4145 72.7605 48.2589C74.6854 47.7721 76.6374 47.5154 78.5535 47.5154C90.4494 47.5154 104.339 56.1176 104.384 73.2379C104.385 73.4915 104.432 73.7513 104.531 73.9993L109.048 85.3444L104.391 87.653C103.686 88.0022 103.241 88.7199 103.241 89.5055V103.7H91.1713C91.1577 103.7 91.1442 103.699 91.1305 103.699C91.1169 103.699 91.1033 103.7 91.0898 103.7H89.1908C88.8646 105.03 87.8051 106.119 86.3835 106.422ZM34.0873 58.7871C30.1374 63.5917 28.0096 69.6311 29.1026 75.8246C30.2325 82.2265 33.3661 87.5038 36.4141 91.8205C37.175 92.8982 37.9257 93.9094 38.6387 94.8665L38.7945 95.0756L38.7947 95.0759L38.795 95.0763C39.4466 95.9507 40.07 96.7873 40.6212 97.5678C41.7571 99.1766 42.8041 100.832 43.0741 102.362L43.0779 102.383L43.0816 102.405L43.0854 102.426L43.0892 102.447L43.093 102.469L43.0968 102.491L43.1007 102.513L43.1045 102.534L43.1084 102.556L43.1123 102.579L43.1162 102.601L43.1202 102.623L43.1241 102.646L43.1281 102.668L43.1321 102.691L43.1361 102.713L43.1402 102.736L43.1442 102.759L43.1483 102.782L43.1524 102.806L43.1565 102.829L43.1606 102.852L43.1647 102.876L43.1689 102.899L43.1731 102.923L43.1773 102.947L43.1815 102.97L43.1857 102.994L43.1899 103.018L43.1942 103.043L43.1985 103.067L43.2028 103.091L43.2071 103.116L43.2114 103.14L43.2158 103.165L43.2201 103.189L43.2245 103.214L43.2289 103.239L43.2333 103.264L43.2378 103.289L43.2422 103.315L43.2467 103.34L43.2512 103.365L43.2556 103.391L43.2602 103.416L43.2647 103.442L43.2692 103.468L43.2738 103.493L43.2784 103.519L43.283 103.545L43.2876 103.572L43.2922 103.598L43.2968 103.624L43.3015 103.65L43.3061 103.677L43.3108 103.703L43.3155 103.73L43.3202 103.757L43.325 103.783L43.3297 103.81L43.3345 103.837L43.3392 103.864L43.344 103.892L43.3488 103.919L43.3537 103.946L43.3585 103.973L43.3633 104.001L43.3682 104.028L43.3731 104.056L43.378 104.084L43.3829 104.112L43.3878 104.139L43.3927 104.167L43.3977 104.195L43.4026 104.224L43.4076 104.252L43.4126 104.28L43.4176 104.308L43.4226 104.337L43.4276 104.365L43.4327 104.394L43.4377 104.422L43.4428 104.451L43.4479 104.48L43.453 104.509L43.4581 104.538L43.4632 104.567L43.4683 104.596L43.4735 104.625L43.4786 104.654L43.4838 104.684L43.489 104.713L43.4942 104.742L43.4994 104.772L43.5046 104.801L43.5099 104.831L43.5151 104.861L43.5204 104.891L43.5256 104.921L43.5309 104.95L43.5362 104.98L43.5415 105.011L43.5468 105.041L43.5522 105.071L43.5575 105.101L43.5629 105.131L43.5682 105.162L43.5736 105.192L43.579 105.223L43.5844 105.253L43.5898 105.284L43.5952 105.315L43.6007 105.346L43.6061 105.376L43.6116 105.407L43.617 105.438L43.6225 105.469L43.628 105.5L43.6335 105.532L43.639 105.563L43.6445 105.594L43.65 105.625L43.6556 105.657L43.6611 105.688L43.6667 105.72L43.6722 105.751L43.6778 105.783L43.6834 105.815L43.689 105.846L43.6946 105.878L43.7002 105.91L43.7059 105.942L43.7115 105.974L43.7172 106.006L43.7228 106.038L43.7285 106.07L43.7341 106.102L43.7398 106.134L43.7455 106.166L43.7512 106.199L43.7569 106.231L43.7627 106.264L43.7684 106.296L43.7741 106.328L43.7799 106.361L43.7856 106.394L43.7914 106.426L43.7972 106.459L43.8029 106.492L43.8087 106.525L43.8145 106.557L43.8203 106.59L43.8261 106.623L43.832 106.656L43.8378 106.689L43.8436 106.722L43.8495 106.755L43.8553 106.789L43.8612 106.822L43.867 106.855L43.8729 106.888L43.8788 106.922L43.8847 106.955L43.8906 106.988L43.8965 107.022L43.9024 107.055L43.9083 107.089L43.9142 107.122L43.9202 107.156L43.9261 107.19L43.9321 107.223L43.938 107.257L43.944 107.291L43.9499 107.325L43.9559 107.358L43.9619 107.392L43.9679 107.426L43.9739 107.46L43.9799 107.494L43.9859 107.528L43.9919 107.562L43.9979 107.596L44.0039 107.63L44.0099 107.665L44.016 107.699L44.022 107.733L44.028 107.767L44.0341 107.801L44.0401 107.836L44.0462 107.87L44.0523 107.904L44.0583 107.939L44.0644 107.973L44.0705 108.008L44.0766 108.042L44.0826 108.077L44.0887 108.111L44.0948 108.146L44.1009 108.18L44.107 108.215L44.1132 108.25L44.1193 108.284L44.1254 108.319L44.1315 108.354L44.1376 108.388L44.1438 108.423L44.1499 108.458L44.1561 108.493L44.1622 108.527L44.1684 108.562L44.1745 108.597L44.1807 108.632L44.1868 108.667L44.193 108.702L44.1991 108.737L44.2053 108.772L44.2115 108.807L44.2177 108.842L44.2238 108.877L44.23 108.912L44.2362 108.947L44.2424 108.982L44.2486 109.017L44.2548 109.052L44.261 109.087L44.2672 109.122L44.2734 109.157L44.2796 109.193L44.2858 109.228L44.292 109.263L44.2982 109.298L44.3044 109.333L44.3106 109.369L44.3169 109.404L44.3231 109.439L44.3293 109.474L44.3355 109.51L44.3418 109.545L44.348 109.58L44.3542 109.615L44.3604 109.651L44.3667 109.686L44.3729 109.721L44.3791 109.757L44.3854 109.792L44.3916 109.827L44.3978 109.863L44.4041 109.898L44.4103 109.933L44.4166 109.969L44.4228 110.004L44.429 110.039L44.4353 110.075L44.4415 110.11L44.4478 110.145L44.454 110.181L44.4603 110.216L44.4665 110.252L44.4727 110.287L44.479 110.322L44.4852 110.358L44.4915 110.393L44.4977 110.428L44.504 110.464L44.5102 110.499L44.5164 110.535L44.5227 110.57L44.5289 110.605L44.5352 110.641L44.5414 110.676L44.5477 110.711L44.5539 110.747L44.5601 110.782L44.5664 110.817L44.5726 110.853L44.5788 110.888L44.5851 110.923L44.5913 110.959L44.5975 110.994L44.6038 111.029L44.61 111.065L44.6162 111.1L44.6224 111.135L44.6287 111.17L44.6349 111.206L44.6411 111.241L44.6473 111.276L44.6535 111.311L44.6598 111.347L44.666 111.382L44.6722 111.417L44.6784 111.452L44.6846 111.487L44.6908 111.522L44.697 111.558L44.7032 111.593L44.7094 111.628L44.7156 111.663L44.7218 111.698L44.7279 111.733L44.7341 111.768L44.7403 111.803L44.7465 111.838L44.7527 111.873L44.7588 111.908L44.765 111.943L44.7712 111.978L44.7773 112.013L44.7835 112.048L44.7896 112.083L44.7958 112.117L44.8019 112.152L44.8081 112.187L44.8142 112.222L44.8203 112.257L44.8265 112.291L44.8326 112.326L44.8387 112.361L44.8448 112.395L44.8509 112.43L44.857 112.465L44.8631 112.499L44.8692 112.534L44.8753 112.568L44.8814 112.603L44.8875 112.637L44.8936 112.672L44.8997 112.706L44.9057 112.74L44.9118 112.775L44.9179 112.809L44.9239 112.843L44.93 112.878L44.936 112.912L44.942 112.946L44.9481 112.98L44.9541 113.014L44.9601 113.049L44.9661 113.083L44.9721 113.117L44.9781 113.151L44.9841 113.185L44.9901 113.219L44.9961 113.253L45.0021 113.286L45.0081 113.32L45.014 113.354L45.02 113.388L45.0259 113.422L45.0319 113.455L45.0378 113.489L45.0438 113.522L45.0497 113.556L45.0556 113.59L45.0615 113.623L45.0674 113.657L45.0733 113.69L45.0792 113.723L45.0851 113.757L45.091 113.79L45.0968 113.823L45.1027 113.856L45.1085 113.89L45.1144 113.923L45.1202 113.956L45.1261 113.989L45.1319 114.022L45.1377 114.055L45.1435 114.088L45.1493 114.12L45.1551 114.153L45.1609 114.186L45.1666 114.219L45.1724 114.251L45.1782 114.284L45.1839 114.317L45.1896 114.349L45.1954 114.382L45.2011 114.414L45.2068 114.446L45.2125 114.479L45.2182 114.511L45.2239 114.543L45.2296 114.575L45.2352 114.607L45.2409 114.639L45.2465 114.671L45.2522 114.703L45.2578 114.735L45.2634 114.767L45.269 114.799L45.2746 114.831L45.2802 114.862L45.2858 114.894L45.2914 114.926L45.2969 114.957L45.3025 114.988L45.308 115.02L45.3136 115.051L45.3191 115.082L45.3246 115.114L45.3301 115.145L45.3356 115.176L45.341 115.207L45.3465 115.238L45.352 115.269L45.3574 115.3L45.3628 115.33L45.3683 115.361L45.3737 115.392L45.3791 115.422L45.3845 115.453L45.3898 115.483L45.3952 115.514L45.4006 115.544L45.4059 115.574L45.4112 115.605L45.4166 115.635L45.4219 115.665L45.4272 115.695L45.4324 115.725L45.4377 115.755L45.443 115.785L45.4482 115.814L45.4535 115.844L45.4587 115.874L45.4639 115.903L45.4691 115.933L45.4743 115.962L45.4795 115.991L45.4846 116.02L45.4898 116.05L45.4949 116.079L45.5 116.108L45.5051 116.137L45.5102 116.166L45.5153 116.194L45.5204 116.223L45.5254 116.252L45.5305 116.28L45.5355 116.309L45.5405 116.337L45.5455 116.366L45.5505 116.394L45.5555 116.422L45.5605 116.45L45.5654 116.478L45.5703 116.506L45.5753 116.534L45.5802 116.562L45.5851 116.59L45.5899 116.617L45.5948 116.645L45.5997 116.672L45.6045 116.7L45.6093 116.727L45.6141 116.754L45.6189 116.781L45.6237 116.808L45.6284 116.835L45.6332 116.862L45.6379 116.889L45.6426 116.916L45.6473 116.942L45.652 116.969L45.6567 116.995L45.6614 117.022L45.666 117.048L45.6706 117.074L45.6752 117.1L45.6798 117.127L45.6844 117.152L45.689 117.178L45.6935 117.204L45.698 117.23L45.7025 117.255L45.707 117.281L45.7115 117.306L45.716 117.331L45.7204 117.357L45.7249 117.382L45.7293 117.407L45.7337 117.432L45.7381 117.457L45.7424 117.481L45.7468 117.506L45.7511 117.531L45.7554 117.555L45.7597 117.579L45.764 117.604L45.7683 117.628L45.7725 117.652L45.7768 117.676L45.781 117.7L45.7852 117.723L45.7893 117.747L45.7935 117.771L45.7976 117.794L45.8018 117.817L45.8059 117.841L45.81 117.864L45.814 117.887L45.8181 117.91L45.8221 117.933L45.8261 117.956L45.8301 117.978L45.8341 118.001L45.8381 118.023L45.842 118.046L45.8459 118.068L45.8498 118.09L45.8537 118.112C46.0081 118.987 45.4235 119.821 44.5478 119.975C43.6722 120.13 42.8372 119.545 42.6828 118.671L42.679 118.649L42.6751 118.626L42.6711 118.604L42.6672 118.582L42.6632 118.559L42.6592 118.537L42.6552 118.514L42.6512 118.491L42.6472 118.469L42.6431 118.446L42.6391 118.423L42.635 118.399L42.6309 118.376L42.6268 118.353L42.6226 118.329L42.6184 118.306L42.6143 118.282L42.6101 118.258L42.6059 118.234L42.6016 118.21L42.5974 118.186L42.5931 118.162L42.5888 118.138L42.5845 118.114L42.5802 118.089L42.5759 118.065L42.5715 118.04L42.5672 118.015L42.5628 117.99L42.5584 117.965L42.554 117.94L42.5495 117.915L42.5451 117.89L42.5406 117.865L42.5362 117.839L42.5317 117.814L42.5271 117.788L42.5226 117.763L42.5181 117.737L42.5135 117.711L42.5089 117.685L42.5043 117.659L42.4997 117.633L42.4951 117.607L42.4905 117.58L42.4858 117.554L42.4811 117.528L42.4764 117.501L42.4717 117.474L42.467 117.448L42.4623 117.421L42.4576 117.394L42.4528 117.367L42.448 117.34L42.4432 117.313L42.4384 117.286L42.4336 117.258L42.4288 117.231L42.4239 117.203L42.4191 117.176L42.4142 117.148L42.4093 117.121L42.4044 117.093L42.3995 117.065L42.3945 117.037L42.3896 117.009L42.3846 116.981L42.3796 116.953L42.3746 116.924L42.3696 116.896L42.3646 116.867L42.3596 116.839L42.3546 116.81L42.3495 116.782L42.3444 116.753L42.3393 116.724L42.3342 116.695L42.3291 116.666L42.324 116.637L42.3189 116.608L42.3137 116.579L42.3086 116.55L42.3034 116.521L42.2982 116.491L42.293 116.462L42.2878 116.432L42.2826 116.403L42.2773 116.373L42.2721 116.343L42.2668 116.313L42.2616 116.283L42.2563 116.254L42.251 116.224L42.2457 116.193L42.2404 116.163L42.235 116.133L42.2297 116.103L42.2243 116.072L42.219 116.042L42.2136 116.012L42.2082 115.981L42.2028 115.95L42.1974 115.92L42.192 115.889L42.1865 115.858L42.1811 115.827L42.1756 115.797L42.1702 115.766L42.1647 115.735L42.1592 115.703L42.1537 115.672L42.1482 115.641L42.1427 115.61L42.1371 115.578L42.1316 115.547L42.126 115.516L42.1205 115.484L42.1149 115.453L42.1093 115.421L42.1037 115.389L42.0981 115.358L42.0925 115.326L42.0869 115.294L42.0813 115.262L42.0756 115.23L42.07 115.198L42.0643 115.166L42.0587 115.134L42.053 115.102L42.0473 115.07L42.0416 115.037L42.0359 115.005L42.0302 114.973L42.0245 114.94L42.0188 114.908L42.013 114.875L42.0073 114.843L42.0015 114.81L41.9958 114.777L41.99 114.745L41.9842 114.712L41.9784 114.679L41.9726 114.646L41.9668 114.613L41.961 114.58L41.9552 114.547L41.9493 114.514L41.9435 114.481L41.9377 114.448L41.9318 114.415L41.9259 114.382L41.9201 114.349L41.9142 114.315L41.9083 114.282L41.9024 114.249L41.8965 114.215L41.8906 114.182L41.8847 114.148L41.8788 114.115L41.8729 114.081L41.8669 114.048L41.861 114.014L41.8551 113.98L41.8491 113.946L41.8431 113.913L41.8372 113.879L41.8312 113.845L41.8252 113.811L41.8192 113.777L41.8133 113.743L41.8073 113.709L41.8013 113.675L41.7952 113.641L41.7892 113.607L41.7832 113.573L41.7772 113.539L41.7712 113.505L41.7651 113.471L41.7591 113.436L41.753 113.402L41.747 113.368L41.7409 113.333L41.7348 113.299L41.7288 113.265L41.7227 113.23L41.7166 113.196L41.7105 113.161L41.7045 113.127L41.6984 113.092L41.6923 113.058L41.6862 113.023L41.68 112.989L41.6739 112.954L41.6678 112.919L41.6617 112.885L41.6556 112.85L41.6494 112.815L41.6433 112.78L41.6372 112.746L41.631 112.711L41.6249 112.676L41.6187 112.641L41.6126 112.606L41.6064 112.571L41.6003 112.536L41.5941 112.502L41.5879 112.467L41.5818 112.432L41.5756 112.397L41.5694 112.362L41.5632 112.327L41.5571 112.292L41.5509 112.257L41.5447 112.222L41.5385 112.186L41.5323 112.151L41.5261 112.116L41.5199 112.081L41.5137 112.046L41.5075 112.011L41.5013 111.976L41.4951 111.94L41.4889 111.905L41.4827 111.87L41.4764 111.835L41.4702 111.8L41.464 111.764L41.4578 111.729L41.4516 111.694L41.4453 111.659L41.4391 111.623L41.4329 111.588L41.4266 111.553L41.4204 111.517L41.4142 111.482L41.4079 111.447L41.4017 111.411L41.3955 111.376L41.3892 111.341L41.383 111.305L41.3768 111.27L41.3705 111.235L41.3643 111.199L41.358 111.164L41.3518 111.129L41.3456 111.093L41.3393 111.058L41.3331 111.022L41.3268 110.987L41.3206 110.952L41.3143 110.916L41.3081 110.881L41.3018 110.846L41.2956 110.81L41.2894 110.775L41.2831 110.739L41.2769 110.704L41.2706 110.669L41.2644 110.633L41.2582 110.598L41.2519 110.563L41.2457 110.527L41.2394 110.492L41.2332 110.457L41.227 110.421L41.2207 110.386L41.2145 110.351L41.2082 110.315L41.202 110.28L41.1958 110.245L41.1895 110.209L41.1833 110.174L41.1771 110.139L41.1709 110.103L41.1646 110.068L41.1584 110.033L41.1522 109.998L41.146 109.962L41.1398 109.927L41.1335 109.892L41.1273 109.857L41.1211 109.822L41.1149 109.786L41.1087 109.751L41.1025 109.716L41.0963 109.681L41.0901 109.646L41.0839 109.611L41.0777 109.576L41.0715 109.54L41.0653 109.505L41.0591 109.47L41.053 109.435L41.0468 109.4L41.0406 109.365L41.0344 109.33L41.0283 109.295L41.0221 109.26L41.0159 109.226L41.0098 109.191L41.0036 109.156L40.9975 109.121L40.9913 109.086L40.9852 109.051L40.979 109.016L40.9729 108.982L40.9668 108.947L40.9606 108.912L40.9545 108.877L40.9484 108.843L40.9423 108.808L40.9362 108.773L40.93 108.739L40.9239 108.704L40.9178 108.67L40.9118 108.635L40.9057 108.601L40.8996 108.566L40.8935 108.532L40.8874 108.497L40.8814 108.463L40.8753 108.429L40.8692 108.394L40.8632 108.36L40.8571 108.326L40.8511 108.292L40.8451 108.257L40.839 108.223L40.833 108.189L40.827 108.155L40.821 108.121L40.815 108.087L40.809 108.053L40.803 108.019L40.797 107.985L40.791 107.951L40.785 107.917L40.779 107.883L40.7731 107.849L40.7671 107.816L40.7612 107.782L40.7552 107.748L40.7493 107.715L40.7434 107.681L40.7374 107.647L40.7315 107.614L40.7256 107.58L40.7197 107.547L40.7138 107.514L40.7079 107.48L40.702 107.447L40.6962 107.414L40.6903 107.38L40.6844 107.347L40.6786 107.314L40.6727 107.281L40.6669 107.248L40.6611 107.215L40.6553 107.182L40.6494 107.149L40.6436 107.116L40.6378 107.083L40.632 107.05L40.6263 107.018L40.6205 106.985L40.6147 106.952L40.609 106.92L40.6032 106.887L40.5975 106.855L40.5918 106.822L40.586 106.79L40.5803 106.757L40.5746 106.725L40.5689 106.693L40.5633 106.661L40.5576 106.628L40.5519 106.596L40.5463 106.564L40.5406 106.532L40.535 106.5L40.5294 106.468L40.5237 106.437L40.5181 106.405L40.5125 106.373L40.5069 106.341L40.5014 106.31L40.4958 106.278L40.4902 106.247L40.4847 106.215L40.4791 106.184L40.4736 106.153L40.4681 106.121L40.4626 106.09L40.4571 106.059L40.4516 106.028L40.4461 105.997L40.4407 105.966L40.4352 105.935L40.4298 105.904L40.4243 105.873L40.4189 105.843L40.4135 105.812L40.4081 105.781L40.4027 105.751L40.3973 105.72L40.392 105.69L40.3866 105.66L40.3813 105.629L40.376 105.599L40.3706 105.569L40.3653 105.539L40.36 105.509L40.3547 105.479L40.3495 105.449L40.3442 105.419L40.339 105.39L40.3337 105.36L40.3285 105.331L40.3233 105.301L40.3181 105.272L40.3129 105.242L40.3078 105.213L40.3026 105.184L40.2974 105.154L40.2923 105.125L40.2872 105.096L40.2821 105.067L40.277 105.039L40.2719 105.01L40.2668 104.981L40.2618 104.952L40.2567 104.924L40.2517 104.895L40.2467 104.867L40.2417 104.839L40.2367 104.81L40.2317 104.782L40.2268 104.754L40.2218 104.726L40.2169 104.698L40.212 104.67L40.2071 104.642L40.2022 104.615L40.1973 104.587L40.1924 104.56L40.1876 104.532L40.1828 104.505L40.1779 104.477L40.1731 104.45L40.1684 104.423L40.1636 104.396L40.1588 104.369L40.1541 104.342L40.1493 104.315L40.1446 104.289L40.1399 104.262L40.1353 104.235L40.1306 104.209L40.1259 104.183L40.1213 104.156L40.1167 104.13L40.1121 104.104L40.1075 104.078L40.1029 104.052L40.0983 104.026L40.0938 104.001L40.0893 103.975L40.0848 103.949L40.0803 103.924L40.0758 103.898L40.0713 103.873L40.0669 103.848L40.0624 103.823L40.058 103.798L40.0536 103.773L40.0492 103.748L40.0449 103.723L40.0405 103.699L40.0362 103.674L40.0319 103.65L40.0276 103.625L40.0233 103.601L40.0191 103.577L40.0148 103.553L40.0106 103.529L40.0064 103.505L40.0022 103.481L39.998 103.458L39.9938 103.434L39.9897 103.411L39.9856 103.387L39.9815 103.364L39.9774 103.341L39.9733 103.318L39.9693 103.295L39.9652 103.272L39.9612 103.249L39.9572 103.227L39.9533 103.204L39.9493 103.182L39.9454 103.159L39.9414 103.137L39.9375 103.115L39.9336 103.093L39.9298 103.071L39.9259 103.049L39.9221 103.028L39.9183 103.006L39.9145 102.985L39.9107 102.963L39.907 102.942L39.9032 102.921C39.7762 102.201 39.176 101.102 37.9901 99.4222C37.4639 98.6769 36.8646 97.8726 36.2054 96.9881L36.2053 96.9879L36.0558 96.7872C35.3424 95.8297 34.57 94.7894 33.7831 93.6749C30.6394 89.2226 27.1844 83.4811 25.9317 76.3832C24.6423 69.0769 27.1857 62.1138 31.5992 56.7453C36.004 51.3874 42.3636 47.496 48.9661 46.3329C61.9332 44.0485 79.0662 50.7206 82.5644 69.5698L89.4271 80.6753C89.9931 81.5912 89.7612 82.7878 88.8939 83.4265L84.4303 86.7131L86.9732 101.122C87.1717 102.246 86.42 103.319 85.2942 103.517L73.8205 105.539L75.1292 112.954C75.2836 113.829 74.6989 114.663 73.8233 114.818C72.9477 114.972 72.1127 114.388 71.9583 113.513L70.6496 106.097L66.3109 106.862C65.4353 107.016 64.6003 106.432 64.4459 105.557C64.2915 104.682 64.8761 103.848 65.7518 103.694L71.6496 102.655L71.6621 102.652L71.6759 102.65C71.6847 102.648 71.6934 102.647 71.7022 102.645L83.6027 100.549L81.1356 86.57C80.9991 85.7964 81.3131 85.0122 81.946 84.5462L86.1309 81.4647L79.7109 71.0756C79.5705 70.8485 79.4789 70.6009 79.4341 70.3512C76.4138 53.4989 61.2404 47.4371 49.5252 49.5009C43.7417 50.5198 38.0458 53.972 34.0873 58.7871ZM51.081 61.9052C51.5131 61.5351 52.1086 61.4204 52.6474 61.6035L66.218 66.2153C66.7741 66.4042 67.183 66.8808 67.285 67.4587L69.6821 81.0414C69.7849 81.6234 69.5598 82.2149 69.096 82.5818L58.1318 91.254C57.7005 91.5951 57.1247 91.6926 56.605 91.5126L43.7088 87.0438C43.1571 86.8526 42.7523 86.378 42.6509 85.8034L40.2538 72.2208C40.155 71.6609 40.3593 71.0905 40.7913 70.7204L51.081 61.9052ZM56.4876 77.0758L64.5828 70.6729L66.3445 80.6551L58.2493 87.0581L56.4876 77.0758ZM45.6575 84.3141L55.0713 87.5762L53.3142 77.6202L43.9005 74.3582L45.6575 84.3141ZM45.0151 71.3395L54.4286 74.6015L62.3829 68.3099L52.4798 64.9445L45.0151 71.3395ZM108.607 106.317C108.595 107.221 108.257 108.048 107.704 108.684L107.72 108.687L106.411 116.102C106.257 116.977 106.841 117.811 107.717 117.965C108.593 118.12 109.427 117.535 109.582 116.661L110.891 109.245L122.364 111.267C123.49 111.465 124.564 110.714 124.762 109.589L127.305 95.1805L132.625 93.6173C133.658 93.3136 134.286 92.2684 134.067 91.2143L131.42 78.4334C134.586 59.5256 120.77 47.4013 107.803 45.1169C103.959 44.4397 99.8752 44.6596 95.9553 45.6583C97.2258 46.3898 98.4907 47.2307 99.7057 48.1937C102.256 47.8377 104.816 47.8573 107.244 48.2849C118.959 50.3488 131.142 61.23 128.211 78.0981C128.168 78.348 128.169 78.612 128.223 78.8734L130.7 90.8298L125.712 92.2953C124.958 92.517 124.395 93.1466 124.258 93.9202L121.791 107.899L109.907 105.806L109.891 105.802C109.882 105.8 109.873 105.799 109.864 105.797C109.85 105.795 109.836 105.792 109.821 105.79L108.616 105.578L108.607 106.317Z" fill="white"/>
</svg>
