<svg width="163" height="163" viewBox="0 0 163 163" fill="none" xmlns="http://www.w3.org/2000/svg">
<rect width="163" height="163" rx="16" fill="#302C3F"/>
<path fill-rule="evenodd" clip-rule="evenodd" d="M125.959 57.995C125.959 52.1076 123.018 46.8636 118.56 43.0425C114.089 39.2105 108.23 36.9375 102.708 36.9375C91.4793 36.9375 78.416 45.0535 78.3615 61.1818C78.3604 61.491 78.3029 61.8085 78.182 62.1122L74.0037 72.6167L78.0516 74.6252C78.913 75.0526 79.4578 75.9312 79.4578 76.8927V90.0173H90.6039C90.6183 90.017 90.6328 90.0169 90.6473 90.0169C90.6617 90.0169 90.6762 90.017 90.6906 90.0173H96.4161C97.5034 90.0173 98.3848 90.8988 98.3848 91.9861C98.3848 93.0734 97.5034 93.9548 96.4161 93.9548H92.616V100.758C92.616 101.845 91.7346 102.726 90.6473 102.726C89.5599 102.726 88.6785 101.845 88.6785 100.758V93.9548H78.0515C76.6535 93.9548 75.5203 92.8216 75.5203 91.4236V77.7648L71.0931 75.5681C69.9128 74.9825 69.3792 73.5894 69.8662 72.3651L74.4259 60.9019C74.6331 42.2665 89.9254 33 102.708 33C109.247 33 115.999 35.6613 121.122 40.0529C126.258 44.4554 129.896 50.7245 129.896 57.995C129.896 65.0064 127.559 71.0769 125.323 75.8288C124.763 77.0188 124.205 78.1351 123.69 79.1591L123.583 79.3724C123.107 80.32 122.678 81.1753 122.308 81.9623C121.463 83.7577 121.124 84.8142 121.124 85.4072V85.4278V85.4485V85.4693V85.4902V85.5113V85.5324V85.5537V85.575V85.5965V85.618V85.6397V85.6615V85.6833V85.7053V85.7274V85.7495V85.7718V85.7942V85.8166V85.8392V85.8619V85.8846V85.9075V85.9305V85.9535V85.9767V85.9999V86.0233V86.0467V86.0703V86.0939V86.1176V86.1414V86.1654V86.1894V86.2135V86.2377V86.262V86.2863V86.3108V86.3354V86.36V86.3847V86.4096V86.4345V86.4595V86.4846V86.5098V86.535V86.5604V86.5858V86.6114V86.637V86.6627V86.6885V86.7143V86.7403V86.7663V86.7924V86.8186V86.8449V86.8713V86.8977V86.9243V86.9509V86.9776V87.0043V87.0312V87.0581V87.0851V87.1122V87.1394V87.1666V87.1939V87.2213V87.2488V87.2763V87.3039V87.3316V87.3594V87.3873V87.4152V87.4432V87.4712V87.4994V87.5276V87.5559V87.5842V87.6126V87.6411V87.6697V87.6983V87.727V87.7558V87.7846V87.8135V87.8425V87.8716V87.9007V87.9298V87.9591V87.9884V88.0178V88.0472V88.0767V88.1063V88.1359V88.1656V88.1953V88.2252V88.255V88.285V88.315V88.345V88.3752V88.4053V88.4356V88.4659V88.4962V88.5266V88.5571V88.5876V88.6182V88.6489V88.6796V88.7103V88.7411V88.772V88.8029V88.8339V88.8649V88.896V88.9271V88.9583V88.9896V89.0208V89.0522V89.0836V89.115V89.1465V89.178V89.2096V89.2413V89.273V89.3047V89.3365V89.3683V89.4002V89.4321V89.4641V89.4961V89.5281V89.5602V89.5924V89.6246V89.6568V89.6891V89.7214V89.7537V89.7861V89.8186V89.8511V89.8836V89.9162V89.9488V89.9814V90.0141V90.0468V90.0796V90.1124V90.1452V90.1781V90.211V90.2439V90.2769V90.3099V90.3429V90.376V90.4091V90.4423V90.4754V90.5087V90.5419V90.5752V90.6085V90.6418V90.6752V90.7086V90.742V90.7755V90.809V90.8425V90.876V90.9096V90.9432V90.9768V91.0105V91.0441V91.0778V91.1116V91.1453V91.1791V91.2129V91.2467V91.2806V91.3144V91.3483V91.3823V91.4162V91.4501V91.4841V91.5181V91.5521V91.5862V91.6202V91.6543V91.6884V91.7225V91.7566V91.7908V91.8249V91.8591V91.8933V91.9275V91.9617V91.996V92.0302V92.0645V92.0988V92.133V92.1674V92.2017V92.236V92.2703V92.3047V92.339V92.3734V92.4078V92.4422V92.4766V92.511V92.5454V92.5798V92.6142V92.6487V92.6831V92.7175V92.752V92.7865V92.8209V92.8554V92.8898V92.9243V92.9588V92.9933V93.0277V93.0622V93.0967V93.1312V93.1657V93.2002V93.2346V93.2691V93.3036V93.3381V93.3726V93.407V93.4415V93.476V93.5104V93.5449V93.5793V93.6138V93.6482V93.6827V93.7171V93.7515V93.786V93.8204V93.8548V93.8892V93.9236V93.9579V93.9923V94.0267V94.061V94.0954V94.1297V94.164V94.1983V94.2326V94.2669V94.3012V94.3354V94.3696V94.4039V94.4381V94.4723V94.5065V94.5406V94.5748V94.6089V94.643V94.6771V94.7112V94.7452V94.7793V94.8133V94.8473V94.8813V94.9152V94.9492V94.9831V95.017V95.0508V95.0847V95.1185V95.1523V95.1861V95.2199V95.2536V95.2873V95.321V95.3546V95.3883V95.4219V95.4554V95.489V95.5225V95.556V95.5895V95.6229V95.6563V95.6897V95.723V95.7563V95.7896V95.8228V95.8561V95.8892V95.9224V95.9555V95.9886V96.0216V96.0547V96.0876V96.1206V96.1535V96.1864V96.2192V96.252V96.2848V96.3175V96.3502V96.3828V96.4154V96.448V96.4805V96.513V96.5455V96.5779V96.6102V96.6425V96.6748V96.7071V96.7393V96.7714V96.8035V96.8356V96.8676V96.8996V96.9315V96.9634V96.9952V97.027V97.0587V97.0904V97.1221V97.1537V97.1852V97.2167V97.2482V97.2795V97.3109V97.3422V97.3734V97.4046V97.4358V97.4669V97.4979V97.5289V97.5598V97.5907V97.6215V97.6522V97.683V97.7136V97.7442V97.7747V97.8052V97.8356V97.866V97.8963V97.9266V97.9567V97.9869V98.0169V98.0469V98.0769V98.1068V98.1366V98.1664V98.1961V98.2257V98.2553V98.2848V98.3142V98.3436V98.3729V98.4022V98.4314V98.4605V98.4895V98.5185V98.5474V98.5763V98.605V98.6338V98.6624V98.691V98.7195V98.7479V98.7763V98.8046V98.8328V98.8609V98.889V98.917V98.9449V98.9728V99.0006V99.0283V99.0559V99.0835V99.1109V99.1383V99.1657V99.1929V99.2201V99.2472V99.2742V99.3011V99.328V99.3548V99.3815V99.4081V99.4346V99.4611V99.4875V99.5138V99.54V99.5661V99.5921V99.6181V99.644V99.6698V99.6955V99.7211V99.7467V99.7721V99.7975V99.8228V99.8479V99.873V99.8981V99.923V99.9478V99.9726V99.9972V100.022V100.046V100.071V100.095V100.119V100.143V100.167V100.191V100.215V100.239V100.262V100.286V100.309V100.333V100.356V100.379V100.402V100.425V100.448V100.471V100.494V100.516V100.539V100.561V100.583V100.606V100.628V100.65V100.671V100.693V100.715V100.737V100.758C121.124 101.845 120.243 102.727 119.156 102.727C118.068 102.727 117.187 101.845 117.187 100.758V100.737V100.715V100.693V100.671V100.65V100.628V100.606V100.583V100.561V100.539V100.516V100.494V100.471V100.448V100.425V100.402V100.379V100.356V100.333V100.309V100.286V100.262V100.239V100.215V100.191V100.167V100.143V100.119V100.095V100.071V100.046V100.022V99.9972V99.9726V99.9478V99.923V99.8981V99.873V99.8479V99.8228V99.7975V99.7721V99.7467V99.7211V99.6955V99.6698V99.644V99.6181V99.5921V99.5661V99.54V99.5138V99.4875V99.4611V99.4346V99.4081V99.3815V99.3548V99.328V99.3011V99.2742V99.2472V99.2201V99.1929V99.1657V99.1383V99.1109V99.0835V99.0559V99.0283V99.0006V98.9728V98.9449V98.917V98.889V98.8609V98.8328V98.8046V98.7763V98.7479V98.7195V98.691V98.6624V98.6338V98.605V98.5763V98.5474V98.5185V98.4895V98.4605V98.4314V98.4022V98.3729V98.3436V98.3142V98.2848V98.2553V98.2257V98.1961V98.1664V98.1366V98.1068V98.0769V98.0469V98.0169V97.9869V97.9567V97.9266V97.8963V97.866V97.8356V97.8052V97.7747V97.7442V97.7136V97.683V97.6522V97.6215V97.5907V97.5598V97.5289V97.4979V97.4669V97.4358V97.4046V97.3734V97.3422V97.3109V97.2795V97.2482V97.2167V97.1852V97.1537V97.1221V97.0904V97.0587V97.027V96.9952V96.9634V96.9315V96.8996V96.8676V96.8356V96.8035V96.7714V96.7393V96.7071V96.6748V96.6425V96.6102V96.5779V96.5455V96.513V96.4805V96.448V96.4154V96.3828V96.3502V96.3175V96.2848V96.252V96.2192V96.1864V96.1535V96.1206V96.0876V96.0547V96.0216V95.9886V95.9555V95.9224V95.8892V95.8561V95.8228V95.7896V95.7563V95.723V95.6897V95.6563V95.6229V95.5895V95.556V95.5225V95.489V95.4554V95.4219V95.3883V95.3546V95.321V95.2873V95.2536V95.2199V95.1861V95.1523V95.1185V95.0847V95.0508V95.017V94.9831V94.9492V94.9152V94.8813V94.8473V94.8133V94.7793V94.7452V94.7112V94.6771V94.643V94.6089V94.5748V94.5406V94.5065V94.4723V94.4381V94.4039V94.3696V94.3354V94.3012V94.2669V94.2326V94.1983V94.164V94.1297V94.0954V94.061V94.0267V93.9923V93.9579V93.9236V93.8892V93.8548V93.8204V93.786V93.7515V93.7171V93.6827V93.6482V93.6138V93.5793V93.5449V93.5104V93.476V93.4415V93.407V93.3726V93.3381V93.3036V93.2691V93.2346V93.2002V93.1657V93.1312V93.0967V93.0622V93.0277V92.9933V92.9588V92.9243V92.8898V92.8554V92.8209V92.7865V92.752V92.7175V92.6831V92.6487V92.6142V92.5798V92.5454V92.511V92.4766V92.4422V92.4078V92.3734V92.339V92.3047V92.2703V92.236V92.2017V92.1674V92.133V92.0988V92.0645V92.0302V91.996V91.9617V91.9275V91.8933V91.8591V91.8249V91.7908V91.7566V91.7225V91.6884V91.6543V91.6202V91.5862V91.5521V91.5181V91.4841V91.4501V91.4162V91.3823V91.3483V91.3144V91.2806V91.2467V91.2129V91.1791V91.1453V91.1116V91.0778V91.0441V91.0105V90.9768V90.9432V90.9096V90.876V90.8425V90.809V90.7755V90.742V90.7086V90.6752V90.6418V90.6085V90.5752V90.5419V90.5087V90.4754V90.4423V90.4091V90.376V90.3429V90.3099V90.2769V90.2439V90.211V90.1781V90.1452V90.1124V90.0796V90.0468V90.0141V89.9814V89.9488V89.9162V89.8836V89.8511V89.8186V89.7861V89.7537V89.7214V89.6891V89.6568V89.6246V89.5924V89.5602V89.5281V89.4961V89.4641V89.4321V89.4002V89.3683V89.3365V89.3047V89.273V89.2413V89.2096V89.178V89.1465V89.115V89.0836V89.0522V89.0208V88.9896V88.9583V88.9271V88.896V88.8649V88.8339V88.8029V88.772V88.7411V88.7103V88.6796V88.6489V88.6182V88.5876V88.5571V88.5266V88.4962V88.4659V88.4356V88.4053V88.3752V88.345V88.315V88.285V88.255V88.2252V88.1953V88.1656V88.1359V88.1063V88.0767V88.0472V88.0178V87.9884V87.9591V87.9298V87.9007V87.8716V87.8425V87.8135V87.7846V87.7558V87.727V87.6983V87.6697V87.6411V87.6126V87.5842V87.5559V87.5276V87.4994V87.4712V87.4432V87.4152V87.3873V87.3594V87.3316V87.3039V87.2763V87.2488V87.2213V87.1939V87.1666V87.1394V87.1122V87.0851V87.0581V87.0312V87.0043V86.9776V86.9509V86.9243V86.8977V86.8713V86.8449V86.8186V86.7924V86.7663V86.7403V86.7143V86.6885V86.6627V86.637V86.6114V86.5858V86.5604V86.535V86.5098V86.4846V86.4595V86.4345V86.4096V86.3847V86.36V86.3354V86.3108V86.2863V86.262V86.2377V86.2135V86.1894V86.1654V86.1414V86.1176V86.0939V86.0703V86.0467V86.0233V85.9999V85.9767V85.9535V85.9305V85.9075V85.8846V85.8619V85.8392V85.8166V85.7942V85.7718V85.7495V85.7274V85.7053V85.6833V85.6615V85.6397V85.618V85.5965V85.575V85.5537V85.5324V85.5113V85.4902V85.4693V85.4485V85.4278V85.4072C117.187 83.8072 117.945 81.9853 118.745 80.2857C119.138 79.4508 119.59 78.5512 120.059 77.6174L120.059 77.6173L120.172 77.3923C120.685 76.3689 121.224 75.2923 121.76 74.1522C123.91 69.5841 125.959 64.1414 125.959 57.995Z" fill="#787582"/>
<path fill-rule="evenodd" clip-rule="evenodd" d="M101.523 48.1891C102.129 47.8605 102.862 47.8721 103.456 48.2197L114.75 54.8218C115.353 55.1749 115.725 55.8219 115.725 56.5215V69.7257C115.725 70.4434 115.334 71.1042 114.705 71.4504L103.162 77.8057C102.579 78.1267 101.873 78.1314 101.286 77.818L89.3739 71.4627C88.7325 71.1205 88.3319 70.4527 88.3319 69.7257V56.5215C88.3319 55.7996 88.7269 55.1356 89.3614 54.7912L101.523 48.1891ZM92.2694 59.8032L100.244 64.0578V72.7992L92.2694 68.5447V59.8032ZM104.182 72.7497L111.787 68.5622V59.8528L104.182 64.0402V72.7497ZM102.198 60.6375L109.767 56.4701L102.427 52.1789L94.455 56.5064L102.198 60.6375Z" fill="white"/>
<path fill-rule="evenodd" clip-rule="evenodd" d="M129.375 104.987H32.9375V123.39C32.9375 124.322 33.693 125.078 34.625 125.078H129.375C130.307 125.078 131.062 124.322 131.062 123.39V106.675C131.062 105.743 130.307 104.987 129.375 104.987ZM29 101.05V123.39C29 126.497 31.5184 129.016 34.625 129.016H129.375C132.482 129.016 135 126.497 135 123.39V106.675C135 103.568 132.482 101.05 129.375 101.05H29Z" fill="white"/>
<path fill-rule="evenodd" clip-rule="evenodd" d="M36.529 109.344C36.529 108.256 37.4104 107.375 38.4977 107.375H50.6229C51.7102 107.375 52.5917 108.256 52.5917 109.344C52.5917 110.431 51.7102 111.312 50.6229 111.312H38.4977C37.4104 111.312 36.529 110.431 36.529 109.344Z" fill="white"/>
<path fill-rule="evenodd" clip-rule="evenodd" d="M54.1757 109.344C54.1757 108.256 55.0571 107.375 56.1445 107.375H57.0702C58.1575 107.375 59.039 108.256 59.039 109.344C59.039 110.431 58.1575 111.312 57.0702 111.312H56.1445C55.0571 111.312 54.1757 110.431 54.1757 109.344Z" fill="white"/>
<path fill-rule="evenodd" clip-rule="evenodd" d="M113.776 109.344C113.776 108.256 114.657 107.375 115.745 107.375H116.671C117.758 107.375 118.639 108.256 118.639 109.344C118.639 110.431 117.758 111.312 116.671 111.312H115.745C114.657 111.312 113.776 110.431 113.776 109.344Z" fill="white"/>
<path fill-rule="evenodd" clip-rule="evenodd" d="M61.9037 120.62C61.9037 119.533 62.7851 118.652 63.8724 118.652H64.7982C65.8855 118.652 66.7669 119.533 66.7669 120.62C66.7669 121.708 65.8855 122.589 64.7982 122.589H63.8724C62.7851 122.589 61.9037 121.708 61.9037 120.62Z" fill="white"/>
<path fill-rule="evenodd" clip-rule="evenodd" d="M62.1291 109.344C62.1291 108.256 63.0105 107.375 64.0978 107.375H66.1838C67.2711 107.375 68.1526 108.256 68.1526 109.344C68.1526 110.431 67.2711 111.312 66.1838 111.312H64.0978C63.0105 111.312 62.1291 110.431 62.1291 109.344Z" fill="white"/>
<path fill-rule="evenodd" clip-rule="evenodd" d="M104.327 115.208C104.327 114.12 105.209 113.239 106.296 113.239H112.733C113.82 113.239 114.702 114.12 114.702 115.208C114.702 116.295 113.82 117.176 112.733 117.176H106.296C105.209 117.176 104.327 116.295 104.327 115.208Z" fill="white"/>
<path fill-rule="evenodd" clip-rule="evenodd" d="M36.6677 120.62C36.6677 119.533 37.5492 118.652 38.6365 118.652H58.6053C59.6927 118.652 60.5741 119.533 60.5741 120.62C60.5741 121.708 59.6927 122.589 58.6053 122.589H38.6365C37.5492 122.589 36.6677 121.708 36.6677 120.62Z" fill="white"/>
<path fill-rule="evenodd" clip-rule="evenodd" d="M70.1601 109.344C70.1601 108.256 71.0415 107.375 72.1288 107.375H91.2815C92.3688 107.375 93.2502 108.256 93.2502 109.344C93.2502 110.431 92.3688 111.312 91.2815 111.312H72.1288C71.0415 111.312 70.1601 110.431 70.1601 109.344Z" fill="white"/>
<path fill-rule="evenodd" clip-rule="evenodd" d="M36.6677 115.208C36.6677 114.12 37.5492 113.239 38.6365 113.239H44.2362C45.3235 113.239 46.205 114.12 46.205 115.208C46.205 116.295 45.3235 117.176 44.2362 117.176H38.6365C37.5492 117.176 36.6677 116.295 36.6677 115.208Z" fill="white"/>
<path fill-rule="evenodd" clip-rule="evenodd" d="M48.8465 115.208C48.8465 114.12 49.7279 113.239 50.8153 113.239H64.0182C65.1055 113.239 65.9869 114.12 65.9869 115.208C65.9869 116.295 65.1055 117.176 64.0182 117.176H50.8153C49.7279 117.176 48.8465 116.295 48.8465 115.208Z" fill="white"/>
<path fill-rule="evenodd" clip-rule="evenodd" d="M67.3401 115.208C67.3401 114.12 68.2215 113.239 69.3088 113.239H71.2351C72.3225 113.239 73.2039 114.12 73.2039 115.208C73.2039 116.295 72.3225 117.176 71.2351 117.176H69.3088C68.2215 117.176 67.3401 116.295 67.3401 115.208Z" fill="white"/>
<path fill-rule="evenodd" clip-rule="evenodd" d="M75.9102 115.208C75.9102 114.12 76.7917 113.239 77.879 113.239H100.103C101.191 113.239 102.072 114.12 102.072 115.208C102.072 116.295 101.191 117.176 100.103 117.176H77.879C76.7917 117.176 75.9102 116.295 75.9102 115.208Z" fill="white"/>
<path fill-rule="evenodd" clip-rule="evenodd" d="M96.6592 109.344C96.6592 108.256 97.5406 107.375 98.6279 107.375H110.027C111.114 107.375 111.995 108.256 111.995 109.344C111.995 110.431 111.114 111.312 110.027 111.312H98.6279C97.5406 111.312 96.6592 110.431 96.6592 109.344Z" fill="white"/>
<path fill-rule="evenodd" clip-rule="evenodd" d="M59.9377 93.0153H34.625C33.693 93.0153 32.9375 93.7708 32.9375 94.7028V100.328H59.9377C60.8697 100.328 61.6252 99.5723 61.6252 98.6403V94.7028C61.6252 93.7708 60.8697 93.0153 59.9377 93.0153ZM34.625 89.0778C31.5184 89.0778 29 91.5962 29 94.7028V104.265H59.9377C63.0443 104.265 65.5627 101.747 65.5627 98.6403V94.7028C65.5627 91.5962 63.0443 89.0778 59.9377 89.0778H34.625Z" fill="white"/>
<path fill-rule="evenodd" clip-rule="evenodd" d="M36.3125 96.6715C36.3125 95.5842 37.194 94.7028 38.2813 94.7028H52.3863C53.4736 94.7028 54.3551 95.5842 54.3551 96.6715C54.3551 97.7588 53.4736 98.6403 52.3863 98.6403H38.2813C37.194 98.6403 36.3125 97.7588 36.3125 96.6715Z" fill="white"/>
</svg>
