<svg width="163" height="163" viewBox="0 0 163 163" fill="none" xmlns="http://www.w3.org/2000/svg">
<rect width="163" height="163" rx="16" fill="#302C3F"/>
<path opacity="0.4" fill-rule="evenodd" clip-rule="evenodd" d="M131.405 64.8052C132.989 65.8807 134.433 67.2238 134.891 68.8725L134.988 69.2218L134.937 69.5807C133.302 81.0933 128.81 94.9738 122.007 105.446C115.257 115.837 105.787 123.467 94.2047 120.899C81.6675 118.118 76.4916 106 74.8608 93.4691C73.2138 80.8133 75.023 66.8438 77.2492 58.7556L77.3141 58.5201L77.4414 58.3116C78.394 56.752 80.2085 55.9019 82.0825 55.4082C84.0282 54.8956 86.4323 54.6651 89.0713 54.638C94.363 54.5836 100.914 55.3464 107.333 56.6008C113.756 57.8558 120.138 59.6206 125.093 61.6106C127.565 62.6034 129.743 63.6762 131.405 64.8052ZM80.5164 59.967C78.4275 67.7323 76.7442 81.0478 78.3024 93.0212C79.8965 105.27 84.7252 115.242 94.9561 117.51C104.329 119.589 112.571 113.601 119.097 103.555C125.484 93.7223 129.805 80.5694 131.436 69.5403C131.204 69.1176 130.633 68.4763 129.455 67.6762C128.079 66.7417 126.154 65.7765 123.8 64.8312C119.103 62.945 112.943 61.2333 106.668 60.0071C100.389 58.7803 94.0867 58.0573 89.1069 58.1084C86.6102 58.134 84.5239 58.354 82.9667 58.7643C81.5456 59.1387 80.8307 59.6012 80.5164 59.967Z" fill="white"/>
<path opacity="0.4" d="M98.9012 100.546C100.445 101.087 104.185 102.244 106.933 108.488C108.395 104.315 106.692 99.0027 100.25 96.7449C93.8068 94.4867 89.1601 97.5735 87.6975 101.747C93.8056 99.0359 97.3592 100.005 98.9012 100.546Z" fill="white"/>
<g opacity="0.4">
<path d="M108.184 75.3157C108.144 74.8987 109.02 74.3783 109.279 74.8428C110.252 76.5872 111.698 77.5439 113.351 77.9514C115.003 78.3587 116.727 78.1836 118.401 77.0919C118.847 76.8019 119.38 77.6689 119.15 78.0193C116.844 81.4977 114.315 82.9003 112.257 82.3929C110.198 81.8854 108.61 79.4677 108.184 75.3157Z" fill="white"/>
<path d="M100.094 73.532C97.7867 77.0102 95.2571 78.4128 93.1984 77.9053C91.1404 77.3979 89.5524 74.9809 89.126 70.8281C89.0854 70.4111 89.9614 69.8907 90.2203 70.3552C91.1959 72.1001 92.6396 73.0562 94.2933 73.4639C95.947 73.8716 97.6697 73.6961 99.3445 72.6046C99.7895 72.3144 100.323 73.1816 100.094 73.532Z" fill="white"/>
</g>
<path fill-rule="evenodd" clip-rule="evenodd" d="M77.3549 35.6004C79.2368 35.9516 81.0984 36.6036 82.1781 37.931L82.4069 38.2122L82.5039 38.5614C85.6171 49.7651 87.0615 64.2825 85.0228 76.6024C82.9998 88.8278 77.379 99.6124 65.7379 101.898C53.1367 104.373 43.5402 95.3422 37.0265 84.5136C30.448 73.5772 26.5101 60.0526 25.3102 51.7499L25.2753 51.5081L25.3084 51.2661C25.5566 49.4555 26.8786 47.9498 28.398 46.7467C29.9755 45.4977 32.0859 44.3235 34.4931 43.2416C39.32 41.0722 45.6276 39.1473 52.0121 37.7252C58.3995 36.3026 64.9548 35.363 70.2921 35.2016C72.9548 35.121 75.3797 35.2318 77.3549 35.6004ZM28.7891 51.5511C29.9855 59.503 33.7768 72.3779 40.0006 82.7247C46.3675 93.3093 54.7861 100.512 65.0691 98.4926C74.4896 96.6429 79.6429 87.855 81.5988 76.0358C83.513 64.4679 82.2029 50.6858 79.2798 39.9267C78.8979 39.6324 78.1182 39.2734 76.7182 39.0122C75.0832 38.707 72.9324 38.5939 70.397 38.6706C65.3381 38.8236 59.008 39.7227 52.7667 41.1129C46.5225 42.5036 40.4582 44.3657 35.9159 46.4072C33.6384 47.4308 31.815 48.4681 30.5524 49.4677C29.4003 50.38 28.9306 51.0901 28.7891 51.5511Z" fill="white"/>
<path d="M52.9706 60.6971C53.1866 61.0561 52.6196 61.9026 52.186 61.5946C50.5572 60.4383 48.8404 60.1964 47.1728 60.5393C45.506 60.882 44.0247 61.7815 42.9827 63.487C42.705 63.9405 41.8508 63.387 41.9076 62.9719C42.4939 58.8399 44.1746 56.4858 46.2508 56.0589C48.3277 55.6318 50.8008 57.1318 52.9706 60.6971Z" fill="white"/>
<path d="M61.0421 58.8284C61.6291 54.6963 63.3098 52.3422 65.3867 51.9151C67.4629 51.4882 69.9359 52.9874 72.1066 56.5533C72.3226 56.9123 71.7555 57.7589 71.322 57.4509C69.6909 56.295 67.9763 56.0526 66.308 56.3957C64.6397 56.7387 63.1599 57.6379 62.1172 59.3436C61.8402 59.7969 60.9852 59.2435 61.0421 58.8284Z" fill="white"/>
<path d="M53.8952 82.3347C56.1854 83.3958 58.092 83.6986 59.6037 83.6869C61.0213 83.6759 62.0857 83.388 62.7758 83.2014C62.8211 83.1891 62.8648 83.1773 62.9068 83.1661C64.3214 82.787 67.2047 81.7981 70.2834 77.7019C70.5054 77.4066 70.822 77.3172 71.059 77.3729C71.1768 77.4006 71.2745 77.4633 71.3398 77.5543C71.4046 77.6445 71.4464 77.7751 71.4305 77.9548C71.1021 81.6495 67.9383 85.6048 63.8383 86.7035C59.8187 87.7805 55.2048 86.0292 53.0169 83.0978C52.9041 82.9467 52.8723 82.8114 52.8817 82.7025C52.8913 82.5929 52.9441 82.4916 53.0337 82.4108C53.2144 82.2478 53.545 82.1724 53.8952 82.3347Z" fill="white" stroke="white" stroke-width="0.375"/>
</svg>
