<svg width="163" height="163" viewBox="0 0 163 163" fill="none" xmlns="http://www.w3.org/2000/svg">
<rect width="163" height="163" rx="16" fill="#302C3F"/>
<path fill-rule="evenodd" clip-rule="evenodd" d="M32.5522 67.1645C28.7434 70.4143 26.2266 74.8779 26.2266 79.8928C26.2266 85.1191 27.9766 89.7447 29.8094 93.6216C30.2668 94.5892 30.7257 95.5028 31.1634 96.3707C31.1955 96.4344 31.2276 96.4979 31.2595 96.5613C31.6592 97.3534 32.0438 98.1156 32.3782 98.8229C33.0603 100.266 33.6993 101.798 33.6993 103.139V116.157C33.6993 117.044 32.9771 117.763 32.0861 117.763C31.1951 117.763 30.4728 117.044 30.4728 116.157V103.139C30.4728 102.62 30.1778 101.712 29.4587 100.19C29.1428 99.5222 28.7765 98.7962 28.3712 97.9928C28.3409 97.9329 28.3105 97.8726 28.2799 97.8119C27.8419 96.9435 27.3666 95.9975 26.8899 94.9892C24.9863 90.9624 23 85.8247 23 79.8928C23 73.7497 26.0878 68.4499 30.4523 64.7259C34.8065 61.0108 40.5433 58.7603 46.0975 58.7603C51.624 58.7603 56.9891 60.8487 60.9805 64.9534C64.8978 68.9819 67.4004 74.8554 67.5412 82.3596L73.4629 88.2544C74.3276 89.1151 74.2604 90.5298 73.3181 91.3056L69.3553 94.5678L71.635 105.742C71.8714 106.901 71.0838 108.02 69.909 108.195L51.8167 110.888C50.9355 111.019 50.1143 110.414 49.9826 109.537C49.8508 108.66 50.4584 107.843 51.3396 107.711L68.2314 105.197L66.0558 94.533C65.9034 93.7862 66.1767 93.0165 66.7666 92.5309L70.2857 89.634L64.9284 84.301C64.532 83.9064 64.3233 83.3782 64.3204 82.8475C64.2813 75.8246 62.0032 70.6232 58.6621 67.1873C55.3136 63.7438 50.8018 61.9721 46.0975 61.9721C41.3767 61.9721 36.3714 63.9059 32.5522 67.1645Z" fill="white"/>
<path opacity="0.4" fill-rule="evenodd" clip-rule="evenodd" d="M123.979 51.4117C127.793 54.6661 130.314 59.1362 130.314 64.1585C130.314 69.3922 128.561 74.0243 126.726 77.9064C126.268 78.8754 125.809 79.7902 125.37 80.6592C125.338 80.723 125.306 80.7867 125.274 80.8501C124.874 81.6433 124.489 82.4064 124.154 83.1146C123.471 84.5594 122.831 86.0937 122.831 87.4355V100.471C122.831 101.357 123.553 102.076 124.444 102.076C125.335 102.076 126.058 101.357 126.058 100.471V87.4355C126.058 86.9151 126.353 86.0052 127.073 84.4822C127.39 83.8131 127.756 83.086 128.162 82.2816C128.193 82.2217 128.223 82.1613 128.254 82.1004C128.692 81.2309 129.168 80.2836 129.645 79.274C131.552 75.242 133.54 70.0978 133.54 64.1585C133.54 58.008 130.449 52.7017 126.079 48.9731C121.719 45.2533 115.975 43 110.414 43C99.5343 43 86.5243 50.8522 86.3546 66.6399L82.454 76.4013C82.055 77.3999 82.4922 78.5363 83.4594 79.014L87.2882 80.9052V92.5631C87.2882 93.7034 88.2169 94.6278 89.3624 94.6278H105.047C105.938 94.6278 106.66 93.9088 106.66 93.0219C106.66 92.135 105.938 91.416 105.047 91.416H90.5148V80.1938C90.5148 79.4094 90.0683 78.6928 89.3625 78.3442L85.8444 76.6065L89.4326 67.627C89.5316 67.3793 89.5788 67.1202 89.5796 66.8678C89.6244 53.1254 100.808 46.2119 110.414 46.2119C115.142 46.2119 120.154 48.1484 123.979 51.4117Z" fill="white"/>
<path opacity="0.4" fill-rule="evenodd" clip-rule="evenodd" d="M136.671 114.347C135.531 113.82 133.854 113.273 131.647 112.775C126.604 111.638 119.48 110.906 111.5 110.906C103.52 110.906 96.3956 111.638 91.3533 112.775C89.1455 113.273 87.4691 113.82 86.3294 114.347C87.4691 114.874 89.1455 115.421 91.3533 115.919C96.3956 117.056 103.52 117.788 111.5 117.788C119.48 117.788 126.604 117.056 131.647 115.919C133.854 115.421 135.531 114.874 136.671 114.347ZM111.5 121C127.792 121 141 118.021 141 114.347C141 110.673 127.792 107.694 111.5 107.694C95.2076 107.694 82 110.673 82 114.347C82 118.021 95.2076 121 111.5 121Z" fill="white"/>
<path fill-rule="evenodd" clip-rule="evenodd" d="M109.477 55.814C109.977 55.5407 110.584 55.5503 111.075 55.8394L120.618 61.4602C121.109 61.7492 121.41 62.2747 121.41 62.8423V74.0838C121.41 74.6514 121.109 75.1769 120.618 75.4659L111.075 81.0867C110.584 81.3757 109.977 81.3854 109.477 81.112L99.1997 75.4913C98.6838 75.2091 98.3633 74.6697 98.3633 74.0838V62.8423C98.3633 62.2564 98.6838 61.7169 99.1997 61.4348L109.477 55.814ZM101.59 65.557L108.64 69.4131V76.9899L101.59 73.1338V65.557ZM111.867 76.8884L118.184 73.168V65.6585L111.867 69.3788V76.8884ZM110.224 66.6145L116.629 62.8423L110.224 59.0701L103.327 62.8423L110.224 66.6145Z" fill="white"/>
</svg>
