<svg width="163" height="163" viewBox="0 0 163 163" fill="none" xmlns="http://www.w3.org/2000/svg">
<rect width="163" height="163" rx="16" fill="#302C3F"/>
<path fill-rule="evenodd" clip-rule="evenodd" d="M144.679 90.7252H70.3207C69.4391 90.7252 68.7245 91.44 68.7245 92.3218V114.678C68.7245 115.56 69.4391 116.275 70.3207 116.275H144.679C145.561 116.275 146.276 115.56 146.276 114.678V92.3218C146.276 91.44 145.561 90.7252 144.679 90.7252ZM70.3207 87C67.3822 87 65 89.3826 65 92.3218V114.678C65 117.617 67.3821 120 70.3207 120H144.679C147.618 120 150 117.617 150 114.678V92.3218C150 89.3826 147.618 87 144.679 87H70.3207Z" fill="white"/>
<path fill-rule="evenodd" clip-rule="evenodd" d="M73 98.5C73 97.6716 73.8801 97 74.9657 97H91.0343C92.1199 97 93 97.6716 93 98.5C93 99.3284 92.1199 100 91.0343 100H74.9657C73.8801 100 73 99.3284 73 98.5Z" fill="white"/>
<path fill-rule="evenodd" clip-rule="evenodd" d="M95 98.5C95 97.6716 95.8559 97 96.9118 97H97.0882C98.1441 97 99 97.6716 99 98.5C99 99.3284 98.1441 100 97.0882 100H96.9118C95.8559 100 95 99.3284 95 98.5Z" fill="white"/>
<path fill-rule="evenodd" clip-rule="evenodd" d="M104 98.5C104 97.6716 104.821 97 105.835 97H109.165C110.179 97 111 97.6716 111 98.5C111 99.3284 110.179 100 109.165 100H105.835C104.821 100 104 99.3284 104 98.5Z" fill="white"/>
<path fill-rule="evenodd" clip-rule="evenodd" d="M113 98.5C113 97.6716 113.857 97 114.914 97H139.086C140.143 97 141 97.6716 141 98.5C141 99.3284 140.143 100 139.086 100H114.914C113.857 100 113 99.3284 113 98.5Z" fill="white"/>
<path fill-rule="evenodd" clip-rule="evenodd" d="M76 107C76 105.895 76.8152 105 77.8209 105H85.1791C86.1848 105 87 105.895 87 107C87 108.105 86.1848 109 85.1791 109H77.8209C76.8152 109 76 108.105 76 107Z" fill="white"/>
<path fill-rule="evenodd" clip-rule="evenodd" d="M90 107C90 105.895 90.8571 105 91.9144 105H116.086C117.143 105 118 105.895 118 107C118 108.105 117.143 109 116.086 109H91.9144C90.8571 109 90 108.105 90 107Z" fill="white"/>
<path fill-rule="evenodd" clip-rule="evenodd" d="M118.625 46.7958H65.3748C64.4843 46.7958 63.7624 47.5242 63.7624 48.4226V72.5774C63.7624 73.4758 64.4843 74.2042 65.3748 74.2042H118.625C119.516 74.2042 120.238 73.4758 120.238 72.5774V48.4226C120.238 47.5242 119.516 46.7958 118.625 46.7958ZM65.3748 43C62.4064 43 60 45.4278 60 48.4226V72.5774C60 75.5722 62.4064 78 65.3748 78H118.625C121.594 78 124 75.5722 124 72.5774V48.4226C124 45.4278 121.594 43 118.625 43H65.3748Z" fill="white"/>
<path d="M91.5057 63.5134L91.405 58.6102H92.286C92.7727 58.6102 93.1922 58.5251 93.5446 58.3548C93.9138 58.1676 94.1991 57.9037 94.4005 57.5632C94.6018 57.2227 94.7025 56.8311 94.7025 56.3884C94.7025 55.9458 94.6018 55.5627 94.4005 55.2392C94.2159 54.9158 93.9474 54.6689 93.595 54.4987C93.2426 54.3114 92.823 54.2177 92.3364 54.2177C91.6651 54.2177 91.061 54.4135 90.524 54.8051C89.987 55.1797 89.5591 55.716 89.2403 56.414L87 54.422C87.5034 53.3495 88.225 52.5152 89.1648 51.9194C90.1213 51.3065 91.2372 51 92.5126 51C93.5866 51 94.5347 51.2298 95.357 51.6895C96.196 52.1322 96.8421 52.7451 97.2952 53.5282C97.7651 54.2944 98 55.1711 98 56.1586C98 57.112 97.7986 57.9462 97.3959 58.6613C96.9931 59.3763 96.4394 59.9637 95.7346 60.4234C95.0297 60.8831 94.2075 61.2065 93.2677 61.3938L94.4508 60.0148L94.2243 63.5134H91.5057ZM92.8398 70C92.2525 70 91.7574 69.7957 91.3547 69.3871C90.9687 68.9785 90.7757 68.4763 90.7757 67.8804C90.7757 67.2845 90.9687 66.7823 91.3547 66.3737C91.7574 65.9651 92.2525 65.7608 92.8398 65.7608C93.4439 65.7608 93.939 65.9651 94.3249 66.3737C94.7109 66.7823 94.9039 67.2845 94.9039 67.8804C94.9039 68.4763 94.7109 68.9785 94.3249 69.3871C93.939 69.7957 93.4439 70 92.8398 70Z" fill="white"/>
<path fill-rule="evenodd" clip-rule="evenodd" d="M18.8118 103.145V103.14V103.122V103.104V103.087V103.069V103.051V103.032V103.014V102.996V102.978V102.96V102.941V102.923V102.905V102.886V102.868V102.849V102.83V102.812V102.793V102.774V102.756V102.737V102.718V102.699V102.68V102.661V102.642V102.623V102.604V102.584V102.565V102.546V102.527V102.507V102.488V102.468V102.449V102.429V102.41V102.39V102.37V102.351V102.331V102.311V102.291V102.272V102.252V102.232V102.212V102.192V102.172V102.152V102.132V102.111V102.091V102.071V102.051V102.03V102.01V101.99V101.969V101.949V101.928V101.908V101.887V101.867V101.846V101.825V101.805V101.784V101.763V101.743V101.722V101.701V101.68V101.659V101.638V101.617V101.596V101.575V101.554V101.533V101.512V101.491V101.47V101.448V101.427V101.406V101.385V101.363V101.342V101.321V101.299V101.278V101.256V101.235V101.213V101.192V101.17V101.149V101.127V101.106V101.084V101.062V101.041V101.019V100.997V100.975V100.954V100.932V100.91V100.888V100.866V100.844V100.822V100.8V100.779V100.757V100.735V100.713V100.691V100.669V100.646V100.624V100.602V100.58V100.558V100.536V100.514V100.492V100.469V100.447V100.425V100.403V100.38V100.358V100.336V100.313V100.291V100.269V100.246V100.224V100.202V100.179V100.157V100.135V100.112V100.09V100.067V100.045V100.022V99.9999V99.9774V99.9549V99.9324V99.9098V99.8873V99.8648V99.8422V99.8197V99.7971V99.7746V99.752V99.7294V99.7068V99.6842V99.6616V99.639V99.6164V99.5938V99.5711V99.5485V99.5259V99.5032V99.4806V99.4579V99.4353V99.4126V99.3899V99.3673V99.3446V99.322V99.2993V99.2766V99.2539V99.2313V99.2086V99.1859V99.1632V99.1406V99.1179V99.0952V99.0725V99.0498V99.0272V99.0045V98.9818V98.9591V98.9365V98.9138V98.8912V98.8685V98.8458V98.8232V98.8005V98.7779V98.7552V98.7326V98.71V98.6874V98.6647V98.6421V98.6195V98.5969V98.5743V98.5517V98.5291V98.5066V98.484V98.4614V98.4389V98.4163V98.3938V98.3713V98.3488V98.3263V98.3038V98.2813V98.2588V98.2363V98.2139V98.1914V98.169V98.1466V98.1242V98.1018V98.0794V98.057V98.0347V98.0123V97.99V97.9677V97.9454V97.9231V97.9008V97.8785V97.8563V97.8341V97.8118V97.7896V97.7675V97.7453V97.7232V97.701V97.6789V97.6568V97.6347V97.6127V97.5906V97.5686V97.5466V97.5246V97.5027V97.4807V97.4588V97.4369V97.415V97.3931V97.3713V97.3495V97.3277V97.3059V97.2841V97.2624V97.2407V97.219V97.1973V97.1757V97.1541V97.1325V97.1109V97.0894V97.0679V97.0464V97.0249V97.0035V96.9821V96.9607V96.9393V96.918V96.8967V96.8754V96.8541V96.8329V96.8117V96.7905V96.7694V96.7483V96.7272V96.7061V96.6851V96.6641V96.6432V96.6222V96.6013V96.5805V96.5596V96.5388V96.518V96.4973V96.4766V96.4559V96.4353V96.4147V96.3941V96.3735V96.353V96.3326V96.3121V96.2917V96.2713V96.251V96.2307V96.2104V96.1902V96.17V96.1499V96.1298V96.1097V96.0896V96.0696V96.0497V96.0297V96.0099V95.99V95.9702V95.9504V95.9307V95.911V95.8914V95.8717V95.8522V95.8327V95.8132V95.7937V95.7743V95.755V95.7356V95.7164V95.6971V95.678V95.6588V95.6397V95.6207V95.6016V95.5827V95.5638V95.5449V95.526V95.5073V95.4885V95.4698V95.4512V95.4326V95.414V95.3955V95.3771V95.3587V95.3403V95.322V95.3037V95.2855V95.2673V95.2492V95.2312V95.2131V95.1952V95.1773V95.1594V95.1416V95.1238V95.1061V95.0885V95.0709V95.0533V95.0358V95.0184V95.001V94.9836V94.9663V94.9491V94.9319V94.9148V94.8977V94.8807V94.8638V94.8469V94.83V94.8132V94.7965V94.7798V94.7632V94.7467V94.7301V94.7137V94.6973V94.681V94.6647V94.6485V94.6324V94.6163V94.6002V94.5843V94.5683V94.5525V94.5367V94.521V94.5053V94.4897V94.4742V94.4587V94.4433V94.4279V94.4126V94.3974V94.3822V94.3671V94.3521V94.3371V94.3222V94.3074V94.2926V94.2779V94.2632V94.2487V94.2341V94.2197V94.2053V94.191V94.1768V94.1626V94.1485V94.1344V94.1205V94.1065V94.0927V94.0789V94.0653V94.0516V94.0381C18.8118 93.7943 18.6491 93.2107 18.0827 92.016C17.8406 91.5053 17.5592 90.9492 17.2428 90.3238L17.2428 90.3237L17.1729 90.1855C16.8322 89.512 16.4594 88.7721 16.0849 87.9822C14.5906 84.8304 13 80.7469 13 76.0101C13 71.0277 15.5122 66.7559 19.0145 63.7761C22.5046 60.8066 27.1082 59 31.5895 59C40.2693 59 50.7036 65.2369 50.9027 77.8086L53.8283 85.1096C54.2935 86.2704 53.7838 87.5912 52.6564 88.1464L50.1791 89.3666V97.8315C50.1791 99.1569 49.0966 100.231 47.7613 100.231H41.4613V104.133V105.384C40.7033 105.62 39.9319 105.826 39.1486 106H37.7003V104.133V100.231H35.7584C34.7199 100.231 33.8779 99.3957 33.8779 98.3648C33.8779 97.3339 34.7199 96.4982 35.7584 96.4982H37.7003V96.4978H41.4613V96.4982H46.4181V88.5398C46.4181 87.6281 46.9385 86.7951 47.7612 86.3899L49.8764 85.3482L47.3158 78.9583C47.2003 78.6701 47.1458 78.37 47.1443 78.0789C47.0942 67.8817 38.7865 62.7332 31.5895 62.7332C28.0796 62.7332 24.3286 64.1716 21.4621 66.6105C18.6076 69.0392 16.761 72.339 16.761 76.0101C16.761 79.9268 18.0762 83.415 19.4879 86.3926C19.8399 87.1352 20.1936 87.8375 20.534 88.5104L20.6096 88.6599L20.6097 88.66L20.6098 88.6602C20.9195 89.2724 21.2221 89.8704 21.4857 90.4264C22.009 91.5303 22.5728 92.8396 22.5728 94.0381V94.0516V94.0653V94.0789V94.0927V94.1065V94.1205V94.1344V94.1485V94.1626V94.1768V94.191V94.2053V94.2197V94.2341V94.2487V94.2632V94.2779V94.2926V94.3074V94.3222V94.3371V94.3521V94.3671V94.3822V94.3974V94.4126V94.4279V94.4433V94.4587V94.4742V94.4897V94.5053V94.521V94.5367V94.5525V94.5683V94.5843V94.6002V94.6163V94.6324V94.6485V94.6647V94.681V94.6973V94.7137V94.7301V94.7467V94.7632V94.7798V94.7965V94.8132V94.83V94.8469V94.8638V94.8807V94.8977V94.9148V94.9319V94.9491V94.9663V94.9836V95.001V95.0184V95.0358V95.0533V95.0709V95.0885V95.1061V95.1238V95.1416V95.1594V95.1773V95.1952V95.2131V95.2312V95.2492V95.2673V95.2855V95.3037V95.322V95.3403V95.3587V95.3771V95.3955V95.414V95.4326V95.4512V95.4698V95.4885V95.5073V95.526V95.5449V95.5638V95.5827V95.6016V95.6207V95.6397V95.6588V95.678V95.6971V95.7164V95.7356V95.755V95.7743V95.7937V95.8132V95.8327V95.8522V95.8717V95.8914V95.911V95.9307V95.9504V95.9702V95.99V96.0099V96.0297V96.0497V96.0696V96.0896V96.1097V96.1298V96.1499V96.17V96.1902V96.2104V96.2307V96.251V96.2713V96.2917V96.3121V96.3326V96.353V96.3735V96.3941V96.4147V96.4353V96.4559V96.4766V96.4973V96.518V96.5388V96.5596V96.5805V96.6013V96.6222V96.6432V96.6641V96.6851V96.7061V96.7272V96.7483V96.7694V96.7905V96.8117V96.8329V96.8541V96.8754V96.8967V96.918V96.9393V96.9607V96.9821V97.0035V97.0249V97.0464V97.0679V97.0894V97.1109V97.1325V97.1541V97.1757V97.1973V97.219V97.2407V97.2624V97.2841V97.3059V97.3277V97.3495V97.3713V97.3931V97.415V97.4369V97.4588V97.4807V97.5027V97.5246V97.5466V97.5686V97.5906V97.6127V97.6347V97.6568V97.6789V97.701V97.7232V97.7453V97.7675V97.7896V97.8118V97.8341V97.8563V97.8785V97.9008V97.9231V97.9454V97.9677V97.99V98.0123V98.0347V98.057V98.0794V98.1018V98.1242V98.1466V98.169V98.1914V98.2139V98.2363V98.2588V98.2813V98.3038V98.3263V98.3488V98.3713V98.3938V98.4163V98.4389V98.4614V98.484V98.5066V98.5291V98.5517V98.5743V98.5969V98.6195V98.6421V98.6647V98.6874V98.71V98.7326V98.7552V98.7779V98.8005V98.8232V98.8458V98.8685V98.8912V98.9138V98.9365V98.9591V98.9818V99.0045V99.0272V99.0498V99.0725V99.0952V99.1179V99.1406V99.1632V99.1859V99.2086V99.2313V99.2539V99.2766V99.2993V99.322V99.3446V99.3673V99.3899V99.4126V99.4353V99.4579V99.4806V99.5032V99.5259V99.5485V99.5711V99.5938V99.6164V99.639V99.6616V99.6842V99.7068V99.7294V99.752V99.7746V99.7971V99.8197V99.8422V99.8648V99.8873V99.9098V99.9324V99.9549V99.9774V99.9999V100.022V100.045V100.067V100.09V100.112V100.135V100.157V100.179V100.202V100.224V100.246V100.269V100.291V100.313V100.336V100.358V100.38V100.403V100.425V100.447V100.469V100.492V100.514V100.536V100.558V100.58V100.602V100.624V100.646V100.669V100.691V100.713V100.735V100.757V100.779V100.8V100.822V100.844V100.866V100.888V100.91V100.932V100.954V100.975V100.997V101.019V101.041V101.062V101.084V101.106V101.127V101.149V101.17V101.192V101.213V101.235V101.256V101.278V101.299V101.321V101.342V101.363V101.385V101.406V101.427V101.448V101.47V101.491V101.512V101.533V101.554V101.575V101.596V101.617V101.638V101.659V101.68V101.701V101.722V101.743V101.763V101.784V101.805V101.825V101.846V101.867V101.887V101.908V101.928V101.949V101.969V101.99V102.01V102.03V102.051V102.071V102.091V102.111V102.132V102.152V102.172V102.192V102.212V102.232V102.252V102.272V102.291V102.311V102.331V102.351V102.37V102.39V102.41V102.429V102.449V102.468V102.488V102.507V102.527V102.546V102.565V102.584V102.604V102.623V102.642V102.661V102.68V102.699V102.718V102.737V102.756V102.774V102.793V102.812V102.83V102.849V102.868V102.886V102.905V102.923V102.941V102.96V102.978V102.996V103.014V103.032V103.051V103.069V103.087V103.104V103.122V103.14V103.158V103.176V103.193V103.211V103.228V103.246V103.263V103.281V103.298V103.315V103.333V103.35V103.367V103.384V103.401V103.418V103.435V103.452V103.469V103.485V103.502V103.519V103.535V103.552V103.568V103.585V103.601V103.617V103.633V103.65V103.666V103.682V103.698V103.714V103.729V103.745V103.761V103.777V103.792V103.808V103.823V103.839V103.854V103.869V103.885V103.9V103.915V103.93V103.945V103.96V103.975V103.99V104.004V104.019V104.033V104.048V104.062V104.077V104.091V104.105V104.12V104.134V104.864C21.2721 104.379 20.0159 103.803 18.8118 103.145Z" fill="#787582"/>
<path fill-rule="evenodd" clip-rule="evenodd" d="M31.7017 69.2554C32.3738 68.9035 33.1864 68.916 33.8467 69.2883L40.1819 72.8603C40.6884 73.1459 41 73.6711 41 74.2392V81.3771C41 82.1346 40.5845 82.8349 39.9092 83.2157L33.5809 86.7838C33.0857 87.063 32.4763 87.0724 31.9722 86.8084L25.1513 83.2372C24.4421 82.8659 24 82.1474 24 81.3659V74.2392C24 73.6531 24.3315 73.1142 24.8635 72.8357L31.7017 69.2554ZM32.7241 72.3457L29.1076 74.2392L32.7241 76.1327L36.0823 74.2392L32.7241 72.3457ZM37.7097 77.012L34.399 78.8787V82.6321L37.7097 80.7654V77.012ZM31.1087 82.7307V78.9126L27.2903 76.9134V80.7316L31.1087 82.7307Z" fill="white"/>
</svg>
